# Blender 3.6.2
# www.blender.org
mtllib Mailbox.mtl
o Cube
v -0.276784 0.035113 0.276784
v -0.276784 3.108164 0.276784
v -0.276784 0.035113 -0.276784
v -0.276784 3.108164 -0.276784
v 0.276784 0.035113 0.276784
v 0.276784 3.108164 0.276784
v 0.276784 0.035113 -0.276784
v 0.276784 3.108164 -0.276784
v -0.350524 3.108164 0.350524
v -0.350524 3.108164 -0.350524
v 0.350524 3.108164 -0.350524
v 0.350524 3.108164 0.350524
v -0.121435 3.378913 0.121435
v -0.121435 3.378913 -0.121435
v 0.121435 3.378913 -0.121435
v 0.121435 3.378913 0.121435
v -0.301327 3.378913 0.301327
v -0.301327 3.378913 -0.301327
v 0.301327 3.378913 -0.301327
v 0.301327 3.378913 0.301327
v -0.121435 3.484083 0.121435
v -0.121435 3.484083 -0.121435
v 0.121435 3.484083 -0.121435
v 0.121435 3.484083 0.121435
v -0.009216 3.562567 0.009216
v -0.009216 3.562567 -0.009216
v 0.009216 3.562567 -0.009216
v 0.009216 3.562567 0.009216
v -0.448742 3.203876 0.448742
v -0.448185 3.243616 0.448185
v -0.448185 3.243616 -0.448185
v -0.448742 3.203876 -0.448742
v 0.448185 3.243616 -0.448185
v 0.448742 3.203876 -0.448742
v 0.448185 3.243616 0.448185
v 0.448742 3.203876 0.448742
v -0.191503 1.985435 0.377993
v -0.191503 2.368441 0.548594
v 0.191503 1.985435 0.377993
v 0.191503 2.368441 0.548594
v -0.191503 2.368441 -1.289883
v -0.191503 1.985435 -1.119282
v 0.191503 2.368441 -1.289883
v 0.191503 1.985435 -1.119282
v -0.088006 2.061650 -0.664529
v -0.088006 1.993794 -0.854174
v 0.095986 2.061650 -0.664529
v 0.095986 1.993794 -0.854174
v -0.088006 1.355243 -0.244033
v -0.088006 1.541607 -0.167623
v 0.095986 1.355243 -0.244033
v 0.095986 1.541607 -0.167623
v -0.243615 2.355353 -1.327550
v -0.243615 2.731297 -1.327550
v 0.243615 2.355353 -1.327550
v 0.268878 2.738230 -1.327550
v -0.268878 2.738230 -0.239974
v -0.268878 2.330090 -0.239974
v 0.268878 2.738230 -0.239974
v 0.268878 2.330090 -0.239974
v 0.201135 2.852381 -1.327550
v -0.201135 2.852381 -1.327550
v 0.201135 2.852381 -0.239974
v -0.201135 2.852381 -0.239974
v 0.058903 2.917906 -1.327550
v -0.058903 2.917906 -1.327550
v 0.066631 2.943169 -0.239974
v -0.066631 2.943169 -0.239974
v -0.268878 2.738230 -1.327550
v -0.268878 2.330090 -1.327550
v 0.268878 2.330090 -1.327550
v 0.243615 2.731297 -1.327550
v 0.182302 2.834613 -1.327550
v -0.182302 2.834613 -1.327550
v 0.066631 2.943169 -1.327550
v -0.066631 2.943169 -1.327550
v 0.243615 2.731297 -1.298866
v -0.243615 2.731297 -1.298866
v 0.182302 2.834613 -1.298866
v -0.182302 2.834613 -1.298866
v -0.243615 2.355353 -1.298866
v 0.243615 2.355353 -1.298866
v 0.058903 2.917906 -1.298866
v -0.058903 2.917906 -1.298866
v 0.013333 2.923211 -1.325210
v -0.013333 2.923211 -1.325210
v 0.013333 2.923211 -1.332797
v -0.013333 2.923211 -1.332797
v 0.013333 2.947262 -1.332797
v -0.013333 2.947262 -1.332797
v 0.013333 2.947262 -1.325210
v -0.013333 2.947262 -1.325210
v 0.013333 2.959671 -1.340367
v -0.013333 2.959671 -1.340367
v 0.013333 2.964727 -1.334711
v -0.013333 2.964727 -1.334711
v 0.013333 2.958388 -1.352552
v -0.013333 2.958388 -1.352552
v 0.013333 2.965809 -1.354126
v -0.013333 2.965809 -1.354126
v 0.013333 2.950204 -1.360368
v -0.013333 2.950204 -1.360368
v 0.013333 2.953447 -1.367226
v -0.013333 2.953447 -1.367226
v -0.287166 2.704809 -0.925083
v -0.287166 2.634430 -0.925083
v -0.287166 2.704809 -1.296087
v -0.287166 2.634430 -1.296087
v -0.262780 2.704809 -1.296087
v -0.262780 2.634430 -1.296087
v -0.262780 2.704809 -0.925083
v -0.262780 2.634430 -0.925083
v -0.287166 2.704809 -0.997216
v -0.287166 2.634430 -0.997216
v -0.262780 2.704809 -0.997216
v -0.262780 2.634430 -0.997216
v -0.262780 2.562757 -0.942794
v -0.287166 2.562757 -0.942794
v -0.287166 2.562757 -0.979504
v -0.262780 2.562757 -0.979504
vn -1.0000 -0.0000 -0.0000
vn -0.0000 -0.0000 -1.0000
vn 1.0000 -0.0000 -0.0000
vn -0.0000 -0.0000 1.0000
vn -0.0000 -1.0000 -0.0000
vn 0.6979 -0.7162 -0.0000
vn 0.6776 0.7355 -0.0000
vn -0.0000 0.7355 0.6776
vn -0.0000 0.7355 -0.6776
vn -0.6979 -0.7162 -0.0000
vn -0.0000 -0.7162 0.6979
vn -0.0000 -0.7162 -0.6979
vn -0.0000 1.0000 -0.0000
vn 0.5731 0.8195 -0.0000
vn -0.5731 0.8195 -0.0000
vn -0.0000 0.8195 0.5731
vn -0.0000 0.8195 -0.5731
vn -0.9999 0.0140 -0.0000
vn -0.0000 0.0140 -0.9999
vn 0.9999 0.0140 -0.0000
vn -0.0000 0.0140 0.9999
vn -0.6776 0.7355 -0.0000
vn -0.0000 -0.4069 0.9135
vn -0.0000 -0.4069 -0.9135
vn -0.0000 0.9415 -0.3369
vn -0.0000 -0.3794 0.9253
vn -0.0000 -0.6908 -0.7230
vn -0.0000 0.6908 0.7230
vn -0.5595 -0.8289 -0.0000
vn 0.8600 0.5104 -0.0000
vn 0.5595 0.8289 -0.0000
vn -0.8600 0.5104 -0.0000
vn -0.8600 -0.5104 -0.0000
vn -0.5595 0.8289 -0.0000
vn 0.8600 -0.5104 -0.0000
vn 0.5595 -0.8289 -0.0000
vn -0.0000 0.4779 0.8784
vn -0.0000 -0.5208 -0.8537
vn -0.0000 -0.6906 0.7232
vn -0.0000 -0.9945 0.1047
vn -0.0000 0.9985 0.0556
vn -0.0000 -0.9040 -0.4275
vn -0.0000 0.7273 -0.6863
vn -0.0000 -0.2399 -0.9708
vn -0.0000 -0.2399 0.9708
vt 0.012626 0.617223
vt 0.012626 0.012626
vt 0.121536 0.012626
vt 0.121536 0.617223
vt 0.415109 0.616080
vt 0.415109 0.012626
vt 0.524019 0.012626
vt 0.524019 0.616080
vt 0.146787 0.617223
vt 0.146787 0.012626
vt 0.255697 0.012626
vt 0.255697 0.617223
vt 0.280948 0.616592
vt 0.280948 0.012626
vt 0.389858 0.012626
vt 0.389858 0.616592
vt 0.878498 0.439863
vt 0.878498 0.330953
vt 0.987374 0.330953
vt 0.987374 0.439863
vt 0.046917 0.785215
vt 0.155793 0.785215
vt 0.170296 0.799723
vt 0.032414 0.799723
vt 0.170296 0.661797
vt 0.032414 0.661797
vt 0.012626 0.642474
vt 0.189143 0.642474
vt 0.155793 0.676305
vt 0.046917 0.676305
vt 0.750479 0.730655
vt 0.926783 0.730655
vt 0.897272 0.759548
vt 0.778737 0.759548
vt 0.750479 0.907008
vt 0.778737 0.878115
vt 0.926783 0.907008
vt 0.897272 0.878115
vt 0.960619 0.158693
vt 0.960619 0.206476
vt 0.939949 0.206476
vt 0.939949 0.158693
vt 0.189143 0.819046
vt 0.012626 0.819046
vt 0.361477 0.661167
vt 0.361477 0.799092
vt 0.341784 0.818416
vt 0.341784 0.641843
vt 0.308727 0.661167
vt 0.308727 0.799092
vt 0.288745 0.818416
vt 0.288745 0.641843
vt 0.814120 0.842723
vt 0.861889 0.842723
vt 0.861889 0.794941
vt 0.814120 0.794941
vt 0.750479 0.932260
vt 0.798248 0.932260
vt 0.775813 0.954338
vt 0.772187 0.954338
vt 0.960601 0.231727
vt 0.960601 0.279510
vt 0.939949 0.279510
vt 0.939949 0.231727
vt 0.960640 0.012626
vt 0.960640 0.060408
vt 0.939949 0.060408
vt 0.939949 0.012626
vt 0.960640 0.085659
vt 0.960640 0.133442
vt 0.939949 0.133442
vt 0.939949 0.085659
vt 0.775813 0.957964
vt 0.772187 0.957964
vt 0.798248 0.980042
vt 0.750479 0.980042
vt 0.214394 0.818937
vt 0.214394 0.642583
vt 0.222213 0.642474
vt 0.222213 0.819046
vt 0.280948 0.818306
vt 0.280948 0.641953
vt 0.247464 0.818937
vt 0.247464 0.642583
vt 0.255282 0.642474
vt 0.255282 0.819046
vt 0.333979 0.818306
vt 0.333979 0.641953
vt 0.624623 0.905968
vt 0.624623 0.982776
vt 0.549270 0.982776
vt 0.549270 0.905968
vt 0.415109 0.880487
vt 0.490462 0.880487
vt 0.490462 0.957760
vt 0.415109 0.957760
vt 0.549270 0.399582
vt 0.624623 0.399582
vt 0.624623 0.761186
vt 0.549270 0.761186
vt 0.549270 0.012626
vt 0.624623 0.046190
vt 0.624623 0.340766
vt 0.549270 0.374331
vt 0.725228 0.340766
vt 0.649875 0.374331
vt 0.649875 0.012626
vt 0.725228 0.046190
vt 0.725228 0.694066
vt 0.649875 0.694066
vt 0.649875 0.399582
vt 0.725228 0.399582
vt 0.649875 0.955943
vt 0.649875 0.918328
vt 0.686074 0.918328
vt 0.686074 0.955943
vt 0.914697 0.147683
vt 0.878498 0.147683
vt 0.878498 0.110369
vt 0.914697 0.110369
vt 0.878499 0.172934
vt 0.914698 0.172934
vt 0.914698 0.305702
vt 0.878499 0.305702
vt 0.854873 0.491071
vt 0.891072 0.507195
vt 0.891072 0.648707
vt 0.854873 0.664831
vt 0.649875 0.735441
vt 0.686074 0.719317
vt 0.686074 0.893077
vt 0.649875 0.876953
vt 0.878498 0.012626
vt 0.914697 0.012626
vt 0.711735 0.840427
vt 0.717377 0.840427
vt 0.716967 0.864704
vt 0.711325 0.864704
vt 0.386747 0.883945
vt 0.386747 0.964160
vt 0.280948 0.964160
vt 0.280948 0.883945
vt 0.772949 0.226597
vt 0.772949 0.012626
vt 0.853247 0.012626
vt 0.853247 0.226597
vt 0.853247 0.251848
vt 0.853247 0.465820
vt 0.772949 0.465820
vt 0.772949 0.251848
vt 0.520908 0.641331
vt 0.520908 0.855236
vt 0.415109 0.855236
vt 0.415109 0.641331
vt 0.750479 0.226597
vt 0.750479 0.012626
vt 0.829622 0.705404
vt 0.803160 0.704983
vt 0.803160 0.491071
vt 0.829622 0.491492
vt 0.294276 0.861510
vt 0.373419 0.861510
vt 0.554914 0.880717
vt 0.549270 0.880717
vt 0.549270 0.806753
vt 0.554914 0.806753
vt 0.750479 0.465820
vt 0.750479 0.251848
vt 0.776942 0.704983
vt 0.776942 0.491071
vt 0.549270 0.786438
vt 0.554914 0.786438
vt 0.750479 0.491492
vt 0.750479 0.705404
vt 0.320738 0.843667
vt 0.346957 0.843667
vt 0.017596 0.959727
vt 0.012626 0.964688
vt 0.012626 0.884542
vt 0.017596 0.885903
vt 0.113454 0.885903
vt 0.118425 0.884542
vt 0.118425 0.964688
vt 0.113454 0.959727
vt 0.101392 0.865615
vt 0.105097 0.862126
vt 0.025954 0.862126
vt 0.029659 0.865615
vt 0.053937 0.849259
vt 0.052416 0.844298
vt 0.078634 0.844298
vt 0.077114 0.849259
vt 0.143676 0.880942
vt 0.239534 0.880942
vt 0.239534 0.954766
vt 0.143676 0.954766
vt 0.155739 0.860654
vt 0.227472 0.860654
vt 0.180017 0.844298
vt 0.203194 0.844298
vt 0.580165 0.786438
vt 0.585808 0.786438
vt 0.585808 0.806753
vt 0.580165 0.806753
vt 0.716967 0.815175
vt 0.711325 0.815175
vt 0.711325 0.719317
vt 0.716967 0.719317
vt 0.585808 0.880717
vt 0.580165 0.880717
vt 0.711325 0.887882
vt 0.716967 0.887882
vt 0.717377 0.912159
vt 0.711735 0.912159
vt 0.386728 0.708085
vt 0.386728 0.702839
vt 0.388220 0.702839
vt 0.388220 0.708085
vt 0.824848 0.939274
vt 0.823500 0.935602
vt 0.824981 0.935422
vt 0.825833 0.938152
vt 0.828403 0.942396
vt 0.829388 0.941275
vt 0.854640 0.940334
vt 0.854640 0.935607
vt 0.859886 0.935607
vt 0.859886 0.940334
vt 0.914972 0.699097
vt 0.918527 0.695975
vt 0.919512 0.697096
vt 0.915956 0.700219
vt 0.885137 0.939511
vt 0.885137 0.934788
vt 0.890384 0.934788
vt 0.890384 0.939511
vt 0.919379 0.693245
vt 0.917607 0.691610
vt 0.918500 0.690414
vt 0.920860 0.693424
vt 0.854640 0.932260
vt 0.859886 0.932260
vt 0.885137 0.932260
vt 0.890384 0.932260
vt 0.386728 0.672341
vt 0.388407 0.672341
vt 0.388407 0.677587
vt 0.386728 0.677587
vt 0.389118 0.647090
vt 0.386728 0.647090
vt 0.386728 0.641843
vt 0.389118 0.641843
vt 0.825860 0.932591
vt 0.826753 0.933788
vt 0.716571 0.937411
vt 0.716571 0.941224
vt 0.711325 0.941224
vt 0.711325 0.937411
vt 0.388093 0.738583
vt 0.386728 0.738583
vt 0.386728 0.733336
vt 0.388093 0.733336
vt 0.829388 0.932260
vt 0.828977 0.933695
vt 0.716571 0.943858
vt 0.711325 0.943858
vt 0.915382 0.691517
vt 0.914972 0.690082
vt 0.930170 0.549872
vt 0.930170 0.564063
vt 0.916324 0.564063
vt 0.916324 0.549872
vt 0.930170 0.603506
vt 0.916324 0.603506
vt 0.916324 0.589314
vt 0.930170 0.589314
vt 0.515714 0.939269
vt 0.515714 0.880487
vt 0.520511 0.880487
vt 0.520511 0.939269
vt 0.956832 0.730655
vt 0.956832 0.744487
vt 0.952035 0.744487
vt 0.952035 0.730655
vt 0.611060 0.800625
vt 0.611060 0.786438
vt 0.615858 0.786438
vt 0.615858 0.800625
vt 0.884922 0.703902
vt 0.884922 0.690082
vt 0.889720 0.690082
vt 0.889720 0.703902
vt 0.611060 0.859409
vt 0.615858 0.859409
vt 0.854873 0.690082
vt 0.859671 0.690082
vt 0.859671 0.704371
vt 0.854873 0.704371
vt 0.930170 0.662306
vt 0.916324 0.662306
vt 0.930170 0.491071
vt 0.916324 0.491071
vt 0.915635 0.939480
vt 0.915635 0.932260
vt 0.920433 0.932260
vt 0.920433 0.939480
vt 0.944271 0.592799
vt 0.944271 0.600021
vt 0.944271 0.553356
vt 0.944271 0.560579
vt 0.956832 0.758733
vt 0.952035 0.758733
s 0
usemtl Mailbox_wood
f 1/1/1 2/2/1 4/3/1 3/4/1
f 3/5/2 4/6/2 8/7/2 7/8/2
f 7/9/3 8/10/3 6/11/3 5/12/3
f 5/13/4 6/14/4 2/15/4 1/16/4
f 3/17/5 7/18/5 5/19/5 1/20/5
f 4/21/5 2/22/5 9/23/5 10/24/5
f 12/25/6 11/26/6 34/27/6 36/28/6
f 2/22/5 6/29/5 12/25/5 9/23/5
f 8/30/5 4/21/5 10/24/5 11/26/5
f 6/29/5 8/30/5 11/26/5 12/25/5
f 35/31/7 33/32/7 19/33/7 20/34/7
f 30/35/8 35/31/8 20/34/8 17/36/8
f 33/32/9 31/37/9 18/38/9 19/33/9
f 13/39/4 16/40/4 24/41/4 21/42/4
f 10/24/10 9/23/10 29/43/10 32/44/10
f 9/45/11 12/46/11 36/47/11 29/48/11
f 11/49/12 10/50/12 32/51/12 34/52/12
f 13/53/13 14/54/13 18/38/13 17/36/13
f 14/54/13 15/55/13 19/33/13 18/38/13
f 15/55/13 16/56/13 20/34/13 19/33/13
f 16/56/13 13/53/13 17/36/13 20/34/13
f 24/57/14 23/58/14 27/59/14 28/60/14
f 15/61/2 14/62/2 22/63/2 23/64/2
f 16/65/3 15/66/3 23/67/3 24/68/3
f 14/69/1 13/70/1 21/71/1 22/72/1
f 27/59/13 26/73/13 25/74/13 28/60/13
f 22/75/15 21/76/15 25/74/15 26/73/15
f 21/76/16 24/57/16 28/60/16 25/74/16
f 23/58/17 22/75/17 26/73/17 27/59/17
f 30/77/18 31/78/18 32/79/18 29/80/18
f 31/81/19 33/82/19 34/52/19 32/51/19
f 33/83/20 35/84/20 36/85/20 34/86/20
f 35/87/21 30/88/21 29/48/21 36/47/21
f 31/37/22 30/35/22 17/36/22 18/38/22
f 38/89/23 37/90/23 39/91/23 40/92/23
f 41/93/24 43/94/24 44/95/24 42/96/24
f 38/97/13 40/98/13 43/99/13 41/100/13
f 40/101/3 39/102/3 44/103/3 43/104/3
f 37/105/1 38/106/1 41/107/1 42/108/1
f 39/109/5 37/110/5 42/111/5 44/112/5
f 46/113/25 45/114/25 47/115/25 48/116/25
f 49/117/26 51/118/26 52/119/26 50/120/26
f 46/121/27 48/122/27 51/123/27 49/124/27
f 48/125/3 47/126/3 52/127/3 51/128/3
f 45/129/1 46/130/1 49/131/1 50/132/1
f 47/133/28 45/134/28 50/120/28 52/119/28
usemtl Metal
f 73/135/29 79/136/29 83/137/29 65/138/29
f 57/139/4 58/140/4 60/141/4 59/142/4
f 56/143/3 59/144/3 60/145/3 71/146/3
f 70/147/1 58/148/1 57/149/1 69/150/1
f 71/151/5 60/152/5 58/153/5 70/154/5
f 56/143/30 61/155/30 63/156/30 59/144/30
f 61/157/31 75/158/31 67/159/31 63/160/31
f 59/142/4 63/161/4 64/162/4 57/139/4
f 55/163/1 82/164/1 77/165/1 72/166/1
f 57/149/32 64/167/32 62/168/32 69/150/32
f 76/169/13 68/170/13 67/159/13 75/158/13
f 72/166/33 77/165/33 79/171/33 73/172/33
f 64/173/34 68/170/34 76/169/34 62/174/34
f 63/161/4 67/175/4 68/176/4 64/162/4
f 53/177/2 70/178/2 69/179/2 54/180/2
f 72/181/2 56/182/2 71/183/2 55/184/2
f 55/184/2 71/183/2 70/178/2 53/177/2
f 73/185/2 61/186/2 56/182/2 72/181/2
f 54/180/2 69/179/2 62/187/2 74/188/2
f 66/189/2 76/190/2 75/191/2 65/192/2
f 65/192/2 75/191/2 61/186/2 73/185/2
f 74/188/2 62/187/2 76/190/2 66/189/2
f 78/193/2 77/194/2 82/195/2 81/196/2
f 78/193/2 80/197/2 79/198/2 77/194/2
f 80/197/2 84/199/2 83/200/2 79/198/2
f 74/201/35 80/202/35 78/203/35 54/204/35
f 53/205/13 81/206/13 82/207/13 55/208/13
f 54/204/3 78/203/3 81/209/3 53/210/3
f 66/211/36 84/212/36 80/213/36 74/214/36
f 65/138/5 83/137/5 84/212/5 66/211/5
f 88/215/5 87/216/5 85/217/5 86/218/5
f 92/219/1 96/220/1 94/221/1 90/222/1
f 86/223/1 92/219/1 90/222/1 88/224/1
f 85/225/4 91/226/4 92/227/4 86/228/4
f 87/229/3 89/230/3 91/231/3 85/232/3
f 88/233/2 90/234/2 89/235/2 87/236/2
f 93/237/3 97/238/3 99/239/3 95/240/3
f 91/226/37 95/241/37 96/242/37 92/227/37
f 89/230/3 93/237/3 95/240/3 91/231/3
f 90/234/38 94/243/38 93/244/38 89/235/38
f 98/245/39 102/246/39 101/247/39 97/248/39
f 94/249/40 98/250/40 97/251/40 93/252/40
f 96/220/1 100/253/1 98/254/1 94/221/1
f 95/255/41 99/256/41 100/257/41 96/258/41
f 102/259/42 104/260/42 103/261/42 101/262/42
f 100/253/1 104/263/1 102/264/1 98/254/1
f 99/256/43 103/265/43 104/266/43 100/257/43
f 97/238/3 101/267/3 103/268/3 99/239/3
usemtl Mailbox_Flag
f 114/269/1 106/270/1 105/271/1 113/272/1
f 116/273/3 115/274/3 111/275/3 112/276/3
f 114/277/5 108/278/5 110/279/5 116/280/5
f 105/281/4 106/282/4 112/283/4 111/284/4
f 113/285/13 105/286/13 111/287/13 115/288/13
f 108/289/2 107/290/2 109/291/2 110/292/2
f 107/293/13 113/285/13 115/288/13 109/294/13
f 114/295/44 116/296/44 120/297/44 119/298/44
f 110/299/3 109/300/3 115/274/3 116/273/3
f 108/301/1 114/269/1 113/272/1 107/302/1
f 118/303/5 119/304/5 120/305/5 117/306/5
f 116/273/3 112/276/3 117/307/3 120/308/3
f 106/270/1 114/269/1 119/309/1 118/310/1
f 112/283/45 106/282/45 118/311/45 117/312/45
