# Blender 3.6.2
# www.blender.org
mtllib Mailbox.mtl
o Cube
v -0.276784 0.035113 0.276784
v -0.276784 3.108164 0.276784
v -0.276784 0.035113 -0.276784
v -0.276784 3.108164 -0.276784
v 0.276784 0.035113 0.276784
v 0.276784 3.108164 0.276784
v 0.276784 0.035113 -0.276784
v 0.276784 3.108164 -0.276784
v -0.350524 3.108164 0.350524
v -0.350524 3.108164 -0.350524
v 0.350524 3.108164 -0.350524
v 0.350524 3.108164 0.350524
v -0.121435 3.378913 0.121435
v -0.121435 3.378913 -0.121435
v 0.121435 3.378913 -0.121435
v 0.121435 3.378913 0.121435
v -0.301327 3.378913 0.301327
v -0.301327 3.378913 -0.301327
v 0.301327 3.378913 -0.301327
v 0.301327 3.378913 0.301327
v -0.121435 3.484083 0.121435
v -0.121435 3.484083 -0.121435
v 0.121435 3.484083 -0.121435
v 0.121435 3.484083 0.121435
v -0.009216 3.562567 0.009216
v -0.009216 3.562567 -0.009216
v 0.009216 3.562567 -0.009216
v 0.009216 3.562567 0.009216
v -0.448742 3.203876 0.448742
v -0.448185 3.243616 0.448185
v -0.448185 3.243616 -0.448185
v -0.448742 3.203876 -0.448742
v 0.448185 3.243616 -0.448185
v 0.448742 3.203876 -0.448742
v 0.448185 3.243616 0.448185
v 0.448742 3.203876 0.448742
v -0.191503 1.985435 0.377993
v -0.191503 2.368441 0.548594
v 0.191503 1.985435 0.377993
v 0.191503 2.368441 0.548594
v -0.191503 2.368441 -1.289883
v -0.191503 1.985435 -1.119282
v 0.191503 2.368441 -1.289883
v 0.191503 1.985435 -1.119282
v -0.088006 2.061650 -0.664529
v -0.088006 1.993794 -0.854174
v 0.095986 2.061650 -0.664529
v 0.095986 1.993794 -0.854174
v -0.088006 1.355243 -0.244033
v -0.088006 1.541607 -0.167623
v 0.095986 1.355243 -0.244033
v 0.095986 1.541607 -0.167623
v -0.243615 2.355353 -1.327550
v -0.243615 2.731297 -1.327550
v 0.243615 2.355353 -1.327550
v 0.268878 2.738230 -1.327550
v -0.268878 2.738230 -0.239974
v -0.268878 2.330090 -0.239974
v 0.268878 2.738230 -0.239974
v 0.268878 2.330090 -0.239974
v 0.201135 2.852381 -1.327550
v -0.201135 2.852381 -1.327550
v 0.201135 2.852381 -0.239974
v -0.201135 2.852381 -0.239974
v 0.058903 2.917906 -1.327550
v -0.058903 2.917906 -1.327550
v 0.066631 2.943169 -0.239974
v -0.066631 2.943169 -0.239974
v -0.268878 2.738230 -1.327550
v -0.268878 2.330090 -1.327550
v 0.268878 2.330090 -1.327550
v 0.243615 2.731297 -1.327550
v 0.182302 2.834613 -1.327550
v -0.182302 2.834613 -1.327550
v 0.066631 2.943169 -1.327550
v -0.066631 2.943169 -1.327550
v 0.243615 2.731297 -1.298866
v -0.243615 2.731297 -1.298866
v 0.182302 2.834613 -1.298866
v -0.182302 2.834613 -1.298866
v -0.243615 2.355353 -1.298866
v 0.243615 2.355353 -1.298866
v 0.058903 2.917906 -1.298866
v -0.058903 2.917906 -1.298866
v 0.013333 2.923211 -1.325210
v -0.013333 2.923211 -1.325210
v 0.013333 2.923211 -1.332797
v -0.013333 2.923211 -1.332797
v 0.013333 2.947262 -1.332797
v -0.013333 2.947262 -1.332797
v 0.013333 2.947262 -1.325210
v -0.013333 2.947262 -1.325210
v 0.013333 2.959671 -1.340367
v -0.013333 2.959671 -1.340367
v 0.013333 2.964727 -1.334711
v -0.013333 2.964727 -1.334711
v 0.013333 2.958388 -1.352552
v -0.013333 2.958388 -1.352552
v 0.013333 2.965809 -1.354126
v -0.013333 2.965809 -1.354126
v 0.013333 2.950204 -1.360368
v -0.013333 2.950204 -1.360368
v 0.013333 2.953447 -1.367226
v -0.013333 2.953447 -1.367226
v -0.287166 2.704809 -0.925083
v -0.287166 2.634430 -0.925083
v -0.287166 2.704809 -1.296087
v -0.287166 2.634430 -1.296087
v -0.262780 2.704809 -1.296087
v -0.262780 2.634430 -1.296087
v -0.262780 2.704809 -0.925083
v -0.262780 2.634430 -0.925083
v -0.287166 2.704809 -0.997216
v -0.287166 2.634430 -0.997216
v -0.262780 2.704809 -0.997216
v -0.262780 2.634430 -0.997216
v -0.262780 2.562757 -0.942794
v -0.287166 2.562757 -0.942794
v -0.287166 2.562757 -0.979504
v -0.262780 2.562757 -0.979504
vn -1.0000 -0.0000 -0.0000
vn -0.0000 -0.0000 -1.0000
vn 1.0000 -0.0000 -0.0000
vn -0.0000 -0.0000 1.0000
vn -0.0000 -1.0000 -0.0000
vn 0.6979 -0.7162 -0.0000
vn 0.6776 0.7355 -0.0000
vn -0.0000 0.7355 0.6776
vn -0.0000 0.7355 -0.6776
vn -0.6979 -0.7162 -0.0000
vn -0.0000 -0.7162 0.6979
vn -0.0000 -0.7162 -0.6979
vn -0.0000 1.0000 -0.0000
vn 0.5731 0.8195 -0.0000
vn -0.5731 0.8195 -0.0000
vn -0.0000 0.8195 0.5731
vn -0.0000 0.8195 -0.5731
vn -0.9999 0.0140 -0.0000
vn -0.0000 0.0140 -0.9999
vn 0.9999 0.0140 -0.0000
vn -0.0000 0.0140 0.9999
vn -0.6776 0.7355 -0.0000
vn -0.0000 -0.4069 0.9135
vn -0.0000 -0.4069 -0.9135
vn -0.0000 0.9415 -0.3369
vn -0.0000 -0.3794 0.9253
vn -0.0000 -0.6908 -0.7230
vn -0.0000 0.6908 0.7230
vn -0.5595 -0.8289 -0.0000
vn 0.8600 0.5104 -0.0000
vn 0.5595 0.8289 -0.0000
vn -0.8600 0.5104 -0.0000
vn -0.8600 -0.5104 -0.0000
vn -0.5595 0.8289 -0.0000
vn 0.8600 -0.5104 -0.0000
vn 0.5595 -0.8289 -0.0000
vn -0.0000 0.4779 0.8784
vn -0.0000 -0.5208 -0.8537
vn -0.0000 -0.6906 0.7232
vn -0.0000 -0.9945 0.1047
vn -0.0000 0.9985 0.0556
vn -0.0000 -0.9040 -0.4275
vn -0.0000 0.7273 -0.6863
vn -0.0000 -0.2399 -0.9708
vn -0.0000 -0.2399 0.9708
vt 0.375000 0.000000
vt 0.625000 0.000000
vt 0.625000 0.250000
vt 0.375000 0.250000
vt 0.625000 0.500000
vt 0.375000 0.500000
vt 0.625000 0.750000
vt 0.375000 0.750000
vt 0.625000 1.000000
vt 0.375000 1.000000
vt 0.125000 0.500000
vt 0.125000 0.750000
vt 0.800375 0.675375
vt 0.699625 0.675375
vt 0.800375 0.574625
vt 0.875000 0.500000
vt 0.875000 0.750000
vt 0.699625 0.574625
vt 0.351666 0.500000
vt 0.333812 0.500000
vt 0.363255 0.734525
vt 0.361733 0.500000
vt 0.136745 0.734525
vt 0.138267 0.500000
vt 0.148334 0.500000
vt 0.166188 0.500000
s 0
usemtl Mailbox_wood
f 1/1/1 2/2/1 4/3/1 3/4/1
f 3/4/2 4/3/2 8/5/2 7/6/2
f 7/6/3 8/5/3 6/7/3 5/8/3
f 5/8/4 6/7/4 2/9/4 1/10/4
f 3/11/5 7/6/5 5/8/5 1/12/5
f 4/3/5 2/2/5 9/2/5 10/3/5
f 12/7/6 11/5/6 34/5/6 36/7/6
f 2/9/5 6/7/5 12/7/5 9/9/5
f 8/5/5 4/3/5 10/3/5 11/5/5
f 6/7/5 8/5/5 11/5/5 12/7/5
f 35/7/7 33/5/7 19/5/7 20/7/7
f 30/9/8 35/7/8 20/7/8 17/9/8
f 33/5/9 31/3/9 18/3/9 19/5/9
f 13/13/4 16/14/4 24/14/4 21/13/4
f 10/3/10 9/2/10 29/2/10 32/3/10
f 9/9/11 12/7/11 36/7/11 29/9/11
f 11/5/12 10/3/12 32/3/12 34/5/12
f 13/13/13 14/15/13 18/16/13 17/17/13
f 14/15/13 15/18/13 19/5/13 18/16/13
f 15/18/13 16/14/13 20/7/13 19/5/13
f 16/14/13 13/13/13 17/17/13 20/7/13
f 24/14/14 23/18/14 27/18/14 28/14/14
f 15/18/2 14/15/2 22/15/2 23/18/2
f 16/14/3 15/18/3 23/18/3 24/14/3
f 14/15/1 13/13/1 21/13/1 22/15/1
f 27/18/13 26/15/13 25/13/13 28/14/13
f 22/15/15 21/13/15 25/13/15 26/15/15
f 21/13/16 24/14/16 28/14/16 25/13/16
f 23/18/17 22/15/17 26/15/17 27/18/17
f 30/2/18 31/3/18 32/3/18 29/2/18
f 31/3/19 33/5/19 34/5/19 32/3/19
f 33/5/20 35/7/20 36/7/20 34/5/20
f 35/7/21 30/9/21 29/9/21 36/7/21
f 31/3/22 30/2/22 17/2/22 18/3/22
f 38/11/23 37/12/23 39/8/23 40/6/23
f 41/11/24 43/6/24 44/8/24 42/12/24
f 38/11/13 40/6/13 43/6/13 41/11/13
f 40/6/3 39/8/3 44/8/3 43/6/3
f 37/12/1 38/11/1 41/11/1 42/12/1
f 39/8/5 37/12/5 42/12/5 44/8/5
f 46/11/25 45/12/25 47/8/25 48/6/25
f 49/11/26 51/6/26 52/8/26 50/12/26
f 46/11/27 48/6/27 51/6/27 49/11/27
f 48/6/3 47/8/3 52/8/3 51/6/3
f 45/12/1 46/11/1 49/11/1 50/12/1
f 47/8/28 45/12/28 50/12/28 52/8/28
usemtl Metal
f 73/19/29 79/19/29 83/20/29 65/20/29
f 57/11/4 58/12/4 60/8/4 59/6/4
f 56/6/3 59/6/3 60/8/3 71/8/3
f 70/12/1 58/12/1 57/11/1 69/11/1
f 71/8/5 60/8/5 58/12/5 70/12/5
f 56/6/30 61/6/30 63/6/30 59/6/30
f 61/6/31 75/6/31 67/6/31 63/6/31
f 59/6/4 63/6/4 64/11/4 57/11/4
f 55/21/1 82/21/1 77/22/1 72/22/1
f 57/11/32 64/11/32 62/11/32 69/11/32
f 76/11/13 68/11/13 67/6/13 75/6/13
f 72/22/33 77/22/33 79/19/33 73/19/33
f 64/11/34 68/11/34 76/11/34 62/11/34
f 63/6/4 67/6/4 68/11/4 64/11/4
f 53/23/2 70/12/2 69/11/2 54/24/2
f 72/22/2 56/6/2 71/8/2 55/21/2
f 55/21/2 71/8/2 70/12/2 53/23/2
f 73/19/2 61/6/2 56/6/2 72/22/2
f 54/24/2 69/11/2 62/11/2 74/25/2
f 66/26/2 76/11/2 75/6/2 65/20/2
f 65/20/2 75/6/2 61/6/2 73/19/2
f 74/25/2 62/11/2 76/11/2 66/26/2
f 78/24/2 77/22/2 82/21/2 81/23/2
f 78/24/2 80/25/2 79/19/2 77/22/2
f 80/25/2 84/26/2 83/20/2 79/19/2
f 74/25/35 80/25/35 78/24/35 54/24/35
f 53/23/13 81/23/13 82/21/13 55/21/13
f 54/24/3 78/24/3 81/23/3 53/23/3
f 66/26/36 84/26/36 80/25/36 74/25/36
f 65/20/5 83/20/5 84/26/5 66/26/5
f 88/11/5 87/6/5 85/6/5 86/11/5
f 92/11/1 96/11/1 94/11/1 90/11/1
f 86/11/1 92/11/1 90/11/1 88/11/1
f 85/6/4 91/6/4 92/11/4 86/11/4
f 87/6/3 89/6/3 91/6/3 85/6/3
f 88/11/2 90/11/2 89/6/2 87/6/2
f 93/6/3 97/6/3 99/6/3 95/6/3
f 91/6/37 95/6/37 96/11/37 92/11/37
f 89/6/3 93/6/3 95/6/3 91/6/3
f 90/11/38 94/11/38 93/6/38 89/6/38
f 98/11/39 102/11/39 101/6/39 97/6/39
f 94/11/40 98/11/40 97/6/40 93/6/40
f 96/11/1 100/11/1 98/11/1 94/11/1
f 95/6/41 99/6/41 100/11/41 96/11/41
f 102/11/42 104/11/42 103/6/42 101/6/42
f 100/11/1 104/11/1 102/11/1 98/11/1
f 99/6/43 103/6/43 104/11/43 100/11/43
f 97/6/3 101/6/3 103/6/3 99/6/3
usemtl Mailbox_Flag
f 114/12/1 106/12/1 105/11/1 113/11/1
f 116/12/3 115/11/3 111/11/3 112/12/3
f 114/12/5 108/12/5 110/12/5 116/12/5
f 105/11/4 106/12/4 112/12/4 111/11/4
f 113/11/13 105/11/13 111/11/13 115/11/13
f 108/12/2 107/11/2 109/11/2 110/12/2
f 107/11/13 113/11/13 115/11/13 109/11/13
f 114/12/44 116/12/44 120/12/44 119/12/44
f 110/12/3 109/11/3 115/11/3 116/12/3
f 108/12/1 114/12/1 113/11/1 107/11/1
f 118/12/5 119/12/5 120/12/5 117/12/5
f 116/12/3 112/12/3 117/12/3 120/12/3
f 106/12/1 114/12/1 119/12/1 118/12/1
f 112/12/45 106/12/45 118/12/45 117/12/45
