# Blender 3.6.2
# www.blender.org
mtllib stopsign.mtl
o Cube
v -0.105612 -0.009672 0.070538
v -0.105612 6.977362 0.070538
v -0.105612 -0.009672 -0.070538
v -0.105612 6.977362 -0.070538
v 0.105612 -0.009672 0.070538
v 0.105612 6.977362 0.070538
v 0.105612 -0.009672 -0.070538
v 0.105612 6.977362 -0.070538
v 0.539257 7.486804 0.070037
v -0.539257 7.486804 0.070037
v -1.301882 6.724179 0.070037
v -1.301882 5.645665 0.070037
v -0.539257 4.883040 0.070037
v 0.539257 4.883040 0.070037
v 1.301882 5.645665 0.070037
v 1.301882 6.724179 0.070037
v 0.539257 7.486804 0.202952
v -0.539257 7.486804 0.202952
v -1.301882 6.724179 0.202952
v -1.301882 5.645665 0.202952
v -0.539257 4.883040 0.202951
v 0.539257 4.883040 0.202951
v 1.301882 5.645665 0.202952
v 1.301882 6.724179 0.202952
vn -1.0000 -0.0000 -0.0000
vn -0.0000 -0.0000 -1.0000
vn 1.0000 -0.0000 -0.0000
vn -0.0000 -0.0000 1.0000
vn -0.0000 -1.0000 -0.0000
vn -0.0000 1.0000 -0.0000
vn -0.7071 -0.7071 -0.0000
vn -0.7071 0.7071 -0.0000
vn 0.7071 0.7071 -0.0000
vn 0.7071 -0.7071 -0.0000
vt 0.375000 0.000000
vt 0.625000 0.000000
vt 0.625000 0.250000
vt 0.375000 0.250000
vt 0.625000 0.500000
vt 0.375000 0.500000
vt 0.625000 0.750000
vt 0.375000 0.750000
vt 0.625000 1.000000
vt 0.375000 1.000000
vt 0.125000 0.500000
vt 0.125000 0.750000
vt 0.875000 0.500000
vt 0.875000 0.750000
vt 0.000000 0.000000
vt 0.292935 0.999900
vt 0.707065 0.999900
vt 0.999900 0.707065
vt 0.999900 0.292935
vt 0.707065 0.000100
vt 0.292935 0.000100
vt 0.000100 0.292935
vt 0.000100 0.707065
s 0
usemtl StopSignPole.001
f 1/1/1 2/2/1 4/3/1 3/4/1
f 3/4/2 4/3/2 8/5/2 7/6/2
f 7/6/3 8/5/3 6/7/3 5/8/3
f 5/8/4 6/7/4 2/9/4 1/10/4
f 3/11/5 7/6/5 5/8/5 1/12/5
f 8/5/6 4/13/6 2/14/6 6/7/6
f 10/15/4 11/15/4 12/15/4 13/15/4 14/15/4 15/15/4 16/15/4 9/15/4
f 9/15/7 16/15/7 24/15/7 17/15/7
f 15/15/8 14/15/8 22/15/8 23/15/8
f 13/15/9 12/15/9 20/15/9 21/15/9
f 11/15/10 10/15/10 18/15/10 19/15/10
f 16/15/1 15/15/1 23/15/1 24/15/1
f 14/15/6 13/15/6 21/15/6 22/15/6
f 12/15/3 11/15/3 19/15/3 20/15/3
f 10/15/5 9/15/5 17/15/5 18/15/5
usemtl StopSign.001
f 18/16/2 17/17/2 24/18/2 23/19/2 22/20/2 21/21/2 20/22/2 19/23/2
