# Blender 3.6.2
# www.blender.org
mtllib streetlight.mtl
o Circle
v 0.000000 0.000000 -0.426906
v -0.301868 0.000000 -0.301868
v -0.426906 0.000000 0.000000
v -0.301868 0.000000 0.301868
v 0.000000 0.000000 0.426906
v 0.301868 0.000000 0.301868
v 0.426906 0.000000 0.000000
v 0.301868 0.000000 -0.301868
v 0.000000 1.234300 -0.426906
v -0.301868 1.234300 -0.301868
v -0.426906 1.234300 0.000000
v -0.301868 1.234300 0.301868
v 0.000000 1.234300 0.426906
v 0.301868 1.234300 0.301868
v 0.426906 1.234300 0.000000
v 0.301868 1.234300 -0.301868
v -0.000000 1.234300 -0.197002
v -0.139302 1.234300 -0.139302
v -0.197002 1.234300 -0.000000
v -0.139302 1.234300 0.139302
v -0.000000 1.234300 0.197002
v 0.139302 1.234300 0.139302
v 0.197002 1.234300 -0.000000
v 0.139302 1.234300 -0.139302
v -0.000000 9.619829 -0.197002
v -0.139302 9.619829 -0.139302
v -0.197002 9.619829 -0.000000
v -0.139302 9.619829 0.139302
v -0.000000 9.619829 0.197002
v 0.139302 9.619829 0.139302
v 0.197002 9.619829 -0.000000
v 0.139302 9.619829 -0.139302
v -0.000000 10.223341 0.084270
v -0.139302 10.182735 0.125265
v -0.197002 10.084707 0.224236
v -0.139302 9.986677 0.323207
v -0.000000 9.946073 0.364202
v 0.139302 9.986677 0.323207
v 0.197002 10.084707 0.224236
v 0.139302 10.182735 0.125265
v -0.000000 10.518906 0.482854
v -0.139302 10.463817 0.500016
v -0.197002 10.330819 0.541447
v -0.139302 10.197822 0.582879
v -0.000000 10.142732 0.600040
v 0.139302 10.197822 0.582879
v 0.197002 10.330819 0.541447
v 0.139302 10.463817 0.500016
v -0.000000 10.636379 1.051681
v -0.139302 10.578919 1.046406
v -0.197002 10.440202 1.033671
v -0.139302 10.301483 1.020936
v -0.000000 10.244024 1.015661
v 0.139302 10.301483 1.020936
v 0.197002 10.440202 1.033671
v 0.139302 10.578919 1.046406
v -0.000000 10.636379 1.837636
v -0.139302 10.578919 1.837636
v -0.197002 10.440202 1.837636
v -0.139302 10.301483 1.837636
v -0.000000 10.244024 1.837636
v 0.139302 10.301483 1.837636
v 0.197002 10.440202 1.837636
v 0.139302 10.578919 1.837636
v -0.000000 10.872011 1.837636
v -0.426423 10.809400 1.837636
v -0.603054 10.586222 1.837636
v -0.507573 10.192938 1.908789
v -0.000000 10.192938 1.908789
v 0.507573 10.192938 1.908789
v 0.603054 10.586222 1.837636
v 0.426423 10.809400 1.837636
v -0.000000 10.947988 3.027907
v -0.524002 10.871048 3.027907
v -0.741051 10.596800 3.027907
v -0.629342 10.192938 3.017397
v 0.702077 10.192938 3.027907
v 0.741051 10.596800 3.027907
v 0.524002 10.871048 3.027907
v -0.000000 10.793939 3.661255
v -0.435182 10.746050 3.661255
v -0.615440 10.575352 3.661255
v -0.372141 10.192938 3.631902
v 0.583072 10.192938 3.661255
v 0.615440 10.575352 3.661255
v 0.435182 10.746050 3.661255
v 0.000000 10.621658 3.966405
v -0.215095 10.590076 3.966405
v -0.304190 10.477502 3.966405
v -0.243726 10.192938 3.895253
v 0.000000 10.192938 3.895253
v 0.243726 10.192938 3.895253
v 0.304190 10.477502 3.966405
v 0.215095 10.590076 3.966405
v -0.000000 10.192938 1.837636
v -0.571337 10.192938 1.837636
v 0.571337 10.192938 1.837636
v -0.702077 10.192938 3.027907
v 0.629342 10.192938 3.017397
v 0.372141 10.192938 3.631902
v -0.583072 10.192938 3.661255
v 0.000000 10.192938 3.966405
v -0.288192 10.192938 3.966405
v 0.288192 10.192938 3.966405
v -0.000000 10.317048 3.027907
v -0.629342 10.317048 3.017397
v 0.629342 10.317048 3.017397
v -0.000000 10.317048 1.908789
v -0.000000 10.317048 3.661255
v -0.372141 10.317048 3.631902
v 0.372141 10.317048 3.631902
v 0.000000 10.317048 3.895253
v -0.507573 10.317048 1.908789
v 0.507573 10.317048 1.908789
v -0.243726 10.317048 3.895253
v 0.243726 10.317048 3.895253
vn -0.9239 -0.0000 0.3827
vn -0.3827 -0.0000 -0.9239
vn 0.3827 -0.0000 -0.9239
vn 0.9239 -0.0000 0.3827
vn -0.3827 -0.0000 0.9239
vn -0.9239 -0.0000 -0.3827
vn 0.9239 -0.0000 -0.3827
vn 0.3827 -0.0000 0.9239
vn -0.0000 1.0000 -0.0000
vn 0.9124 0.1758 -0.3696
vn 0.3568 -0.4222 0.8334
vn -0.9123 -0.1804 0.3676
vn -0.3574 0.3959 -0.8459
vn 0.3574 0.3959 -0.8459
vn 0.9123 -0.1804 0.3676
vn -0.3568 -0.4222 0.8334
vn -0.9124 0.1758 -0.3696
vn -0.9189 0.3137 -0.2390
vn 0.9189 0.3137 -0.2390
vn 0.3697 -0.7174 0.5904
vn -0.9186 -0.3097 0.2455
vn -0.3715 0.7443 -0.5550
vn 0.3715 0.7443 -0.5550
vn 0.9186 -0.3097 0.2455
vn -0.3697 -0.7174 0.5904
vn 0.3747 0.9076 -0.1893
vn 0.9202 -0.3816 0.0874
vn -0.3736 -0.9020 0.2165
vn -0.9204 0.3822 -0.0826
vn 0.9204 0.3822 -0.0826
vn 0.3736 -0.9020 0.2165
vn -0.9202 -0.3816 0.0874
vn -0.3747 0.9076 -0.1893
vn -0.9233 -0.3841 -0.0000
vn -0.3813 0.9244 -0.0000
vn 0.3813 0.9244 -0.0000
vn 0.9233 -0.3841 -0.0000
vn -0.3813 -0.9244 -0.0000
vn -0.9233 0.3841 -0.0000
vn 0.9233 0.3841 -0.0000
vn 0.3813 -0.9244 -0.0000
vn -0.0000 -0.0000 -1.0000
vn -0.0000 -0.0000 1.0000
vn -0.7805 0.6177 -0.0960
vn 0.7805 0.6177 -0.0960
vn -0.9225 -0.0000 -0.3861
vn -0.9899 -0.0878 -0.1114
vn -0.1450 0.9874 -0.0630
vn 0.1450 0.9874 -0.0630
vn 0.9899 -0.0878 -0.1114
vn 0.1258 0.9669 0.2218
vn 0.9783 -0.0888 0.1874
vn -0.7310 0.6527 0.1992
vn 0.7310 0.6527 0.1992
vn -0.9783 -0.0888 0.1874
vn -0.1258 0.9669 0.2218
vn -0.9940 -0.0000 0.1092
vn -0.7127 -0.0517 0.6996
vn -0.1050 0.8595 0.5002
vn 0.1050 0.8595 0.5002
vn 0.7127 -0.0517 0.6996
vn -0.5340 0.5077 0.6761
vn 0.5340 0.5077 0.6761
vn -0.0000 -1.0000 -0.0000
vn -0.8988 -0.0000 -0.4383
vn 0.9225 -0.0000 -0.3861
vn 0.9940 -0.0000 0.1092
vn 0.8988 -0.0000 -0.4383
vt 0.000000 0.000000
s 0
usemtl Strret_Light_Metal
f 4/1/1 12/1/1 11/1/1 3/1/1
f 2/1/2 10/1/2 9/1/2 1/1/2
f 1/1/3 9/1/3 16/1/3 8/1/3
f 7/1/4 15/1/4 14/1/4 6/1/4
f 5/1/5 13/1/5 12/1/5 4/1/5
f 3/1/6 11/1/6 10/1/6 2/1/6
f 8/1/7 16/1/7 15/1/7 7/1/7
f 6/1/8 14/1/8 13/1/8 5/1/8
f 15/1/9 23/1/9 22/1/9 14/1/9
f 13/1/9 21/1/9 20/1/9 12/1/9
f 11/1/9 19/1/9 18/1/9 10/1/9
f 16/1/9 24/1/9 23/1/9 15/1/9
f 14/1/9 22/1/9 21/1/9 13/1/9
f 12/1/9 20/1/9 19/1/9 11/1/9
f 10/1/9 18/1/9 17/1/9 9/1/9
f 9/1/9 17/1/9 24/1/9 16/1/9
f 18/1/2 26/1/2 25/1/2 17/1/2
f 17/1/3 25/1/3 32/1/3 24/1/3
f 23/1/4 31/1/4 30/1/4 22/1/4
f 21/1/5 29/1/5 28/1/5 20/1/5
f 19/1/6 27/1/6 26/1/6 18/1/6
f 24/1/7 32/1/7 31/1/7 23/1/7
f 22/1/8 30/1/8 29/1/8 21/1/8
f 20/1/1 28/1/1 27/1/1 19/1/1
f 32/1/10 40/1/10 39/1/10 31/1/10
f 30/1/11 38/1/11 37/1/11 29/1/11
f 28/1/12 36/1/12 35/1/12 27/1/12
f 26/1/13 34/1/13 33/1/13 25/1/13
f 25/1/14 33/1/14 40/1/14 32/1/14
f 31/1/15 39/1/15 38/1/15 30/1/15
f 29/1/16 37/1/16 36/1/16 28/1/16
f 27/1/17 35/1/17 34/1/17 26/1/17
f 35/1/18 43/1/18 42/1/18 34/1/18
f 40/1/19 48/1/19 47/1/19 39/1/19
f 38/1/20 46/1/20 45/1/20 37/1/20
f 36/1/21 44/1/21 43/1/21 35/1/21
f 34/1/22 42/1/22 41/1/22 33/1/22
f 33/1/23 41/1/23 48/1/23 40/1/23
f 39/1/24 47/1/24 46/1/24 38/1/24
f 37/1/25 45/1/25 44/1/25 36/1/25
f 41/1/26 49/1/26 56/1/26 48/1/26
f 47/1/27 55/1/27 54/1/27 46/1/27
f 45/1/28 53/1/28 52/1/28 44/1/28
f 43/1/29 51/1/29 50/1/29 42/1/29
f 48/1/30 56/1/30 55/1/30 47/1/30
f 46/1/31 54/1/31 53/1/31 45/1/31
f 44/1/32 52/1/32 51/1/32 43/1/32
f 42/1/33 50/1/33 49/1/33 41/1/33
f 52/1/34 60/1/34 59/1/34 51/1/34
f 50/1/35 58/1/35 57/1/35 49/1/35
f 49/1/36 57/1/36 64/1/36 56/1/36
f 55/1/37 63/1/37 62/1/37 54/1/37
f 53/1/38 61/1/38 60/1/38 52/1/38
f 51/1/39 59/1/39 58/1/39 50/1/39
f 56/1/40 64/1/40 63/1/40 55/1/40
f 54/1/41 62/1/41 61/1/41 53/1/41
f 64/1/42 72/1/42 71/1/42 63/1/42
f 62/1/42 97/1/42 95/1/42 61/1/42
f 60/1/42 96/1/42 67/1/42 59/1/42
f 58/1/42 66/1/42 65/1/42 57/1/42
f 57/1/42 65/1/42 72/1/42 64/1/42
f 63/1/42 71/1/42 97/1/42 62/1/42
f 61/1/42 95/1/42 96/1/42 60/1/42
f 59/1/42 67/1/42 66/1/42 58/1/42
f 70/1/43 114/1/43 108/1/43 69/1/43
f 67/1/44 75/1/44 74/1/44 66/1/44
f 72/1/45 79/1/45 78/1/45 71/1/45
f 100/1/46 111/1/46 107/1/46 99/1/46
f 96/1/47 98/1/47 75/1/47 67/1/47
f 66/1/48 74/1/48 73/1/48 65/1/48
f 65/1/49 73/1/49 79/1/49 72/1/49
f 71/1/50 78/1/50 77/1/50 97/1/50
f 73/1/51 80/1/51 86/1/51 79/1/51
f 78/1/52 85/1/52 84/1/52 77/1/52
f 91/1/42 112/1/42 116/1/42 92/1/42
f 75/1/53 82/1/53 81/1/53 74/1/53
f 79/1/54 86/1/54 85/1/54 78/1/54
f 69/1/43 108/1/43 113/1/43 68/1/43
f 98/1/55 101/1/55 82/1/55 75/1/55
f 74/1/56 81/1/56 80/1/56 73/1/56
f 99/1/57 107/1/57 114/1/57 70/1/57
f 101/1/58 103/1/58 89/1/58 82/1/58
f 81/1/59 88/1/59 87/1/59 80/1/59
f 80/1/60 87/1/60 94/1/60 86/1/60
f 85/1/61 93/1/61 104/1/61 84/1/61
f 90/1/42 115/1/42 112/1/42 91/1/42
f 82/1/62 89/1/62 88/1/62 81/1/62
f 86/1/63 94/1/63 93/1/63 85/1/63
f 88/1/43 89/1/43 103/1/43 102/1/43 104/1/43 93/1/43 94/1/43 87/1/43
f 68/1/64 96/1/64 95/1/64 69/1/64
f 69/1/64 95/1/64 97/1/64 70/1/64
f 76/1/64 98/1/64 96/1/64 68/1/64
f 70/1/64 97/1/64 77/1/64 99/1/64
f 99/1/64 77/1/64 84/1/64 100/1/64
f 83/1/64 101/1/64 98/1/64 76/1/64
f 91/1/64 102/1/64 103/1/64 90/1/64
f 92/1/64 104/1/64 102/1/64 91/1/64
f 100/1/64 84/1/64 104/1/64 92/1/64
f 90/1/64 103/1/64 101/1/64 83/1/64
f 92/1/65 116/1/65 111/1/65 100/1/65
f 76/1/66 106/1/66 110/1/66 83/1/66
f 68/1/67 113/1/67 106/1/67 76/1/67
f 83/1/68 110/1/68 115/1/68 90/1/68
usemtl Street_Light
f 108/1/64 105/1/64 106/1/64 113/1/64
f 114/1/64 107/1/64 105/1/64 108/1/64
f 105/1/64 109/1/64 110/1/64 106/1/64
f 107/1/64 111/1/64 109/1/64 105/1/64
f 111/1/64 116/1/64 112/1/64 109/1/64
f 109/1/64 112/1/64 115/1/64 110/1/64
