# Blender 3.6.2
# www.blender.org
mtllib streetlight.mtl
o Circle
v 0.000000 0.000000 -0.426906
v -0.301868 0.000000 -0.301868
v -0.426906 0.000000 0.000000
v -0.301868 0.000000 0.301868
v 0.000000 0.000000 0.426906
v 0.301868 0.000000 0.301868
v 0.426906 0.000000 0.000000
v 0.301868 0.000000 -0.301868
v 0.000000 1.234300 -0.426906
v -0.301868 1.234300 -0.301868
v -0.426906 1.234300 0.000000
v -0.301868 1.234300 0.301868
v 0.000000 1.234300 0.426906
v 0.301868 1.234300 0.301868
v 0.426906 1.234300 0.000000
v 0.301868 1.234300 -0.301868
v -0.000000 1.234300 -0.197002
v -0.139302 1.234300 -0.139302
v -0.197002 1.234300 -0.000000
v -0.139302 1.234300 0.139302
v -0.000000 1.234300 0.197002
v 0.139302 1.234300 0.139302
v 0.197002 1.234300 -0.000000
v 0.139302 1.234300 -0.139302
v -0.000000 9.619829 -0.197002
v -0.139302 9.619829 -0.139302
v -0.197002 9.619829 -0.000000
v -0.139302 9.619829 0.139302
v -0.000000 9.619829 0.197002
v 0.139302 9.619829 0.139302
v 0.197002 9.619829 -0.000000
v 0.139302 9.619829 -0.139302
v -0.000000 10.223341 0.084270
v -0.139302 10.182735 0.125265
v -0.197002 10.084707 0.224236
v -0.139302 9.986677 0.323207
v -0.000000 9.946073 0.364202
v 0.139302 9.986677 0.323207
v 0.197002 10.084707 0.224236
v 0.139302 10.182735 0.125265
v -0.000000 10.518906 0.482854
v -0.139302 10.463817 0.500016
v -0.197002 10.330819 0.541447
v -0.139302 10.197822 0.582879
v -0.000000 10.142732 0.600040
v 0.139302 10.197822 0.582879
v 0.197002 10.330819 0.541447
v 0.139302 10.463817 0.500016
v -0.000000 10.636379 1.051681
v -0.139302 10.578919 1.046406
v -0.197002 10.440202 1.033671
v -0.139302 10.301483 1.020936
v -0.000000 10.244024 1.015661
v 0.139302 10.301483 1.020936
v 0.197002 10.440202 1.033671
v 0.139302 10.578919 1.046406
v -0.000000 10.636379 1.837636
v -0.139302 10.578919 1.837636
v -0.197002 10.440202 1.837636
v -0.139302 10.301483 1.837636
v -0.000000 10.244024 1.837636
v 0.139302 10.301483 1.837636
v 0.197002 10.440202 1.837636
v 0.139302 10.578919 1.837636
v -0.000000 10.872011 1.837636
v -0.426423 10.809400 1.837636
v -0.603054 10.586222 1.837636
v -0.507573 10.192938 1.908789
v -0.000000 10.192938 1.908789
v 0.507573 10.192938 1.908789
v 0.603054 10.586222 1.837636
v 0.426423 10.809400 1.837636
v -0.000000 10.947988 3.027907
v -0.524002 10.871048 3.027907
v -0.741051 10.596800 3.027907
v -0.629342 10.192938 3.017397
v 0.702077 10.192938 3.027907
v 0.741051 10.596800 3.027907
v 0.524002 10.871048 3.027907
v -0.000000 10.793939 3.661255
v -0.435182 10.746050 3.661255
v -0.615440 10.575352 3.661255
v -0.372141 10.192938 3.631902
v 0.583072 10.192938 3.661255
v 0.615440 10.575352 3.661255
v 0.435182 10.746050 3.661255
v 0.000000 10.621658 3.966405
v -0.215095 10.590076 3.966405
v -0.304190 10.477502 3.966405
v -0.243726 10.192938 3.895253
v 0.000000 10.192938 3.895253
v 0.243726 10.192938 3.895253
v 0.304190 10.477502 3.966405
v 0.215095 10.590076 3.966405
v -0.000000 10.192938 1.837636
v -0.571337 10.192938 1.837636
v 0.571337 10.192938 1.837636
v -0.702077 10.192938 3.027907
v 0.629342 10.192938 3.017397
v 0.372141 10.192938 3.631902
v -0.583072 10.192938 3.661255
v 0.000000 10.192938 3.966405
v -0.288192 10.192938 3.966405
v 0.288192 10.192938 3.966405
v -0.000000 10.317048 3.027907
v -0.629342 10.317048 3.017397
v 0.629342 10.317048 3.017397
v -0.000000 10.317048 1.908789
v -0.000000 10.317048 3.661255
v -0.372141 10.317048 3.631902
v 0.372141 10.317048 3.631902
v 0.000000 10.317048 3.895253
v -0.507573 10.317048 1.908789
v 0.507573 10.317048 1.908789
v -0.243726 10.317048 3.895253
v 0.243726 10.317048 3.895253
vn -0.9239 -0.0000 0.3827
vn -0.3827 -0.0000 -0.9239
vn 0.3827 -0.0000 -0.9239
vn 0.9239 -0.0000 0.3827
vn -0.3827 -0.0000 0.9239
vn -0.9239 -0.0000 -0.3827
vn 0.9239 -0.0000 -0.3827
vn 0.3827 -0.0000 0.9239
vn -0.0000 1.0000 -0.0000
vn 0.9124 0.1758 -0.3696
vn 0.3568 -0.4222 0.8334
vn -0.9123 -0.1804 0.3676
vn -0.3574 0.3959 -0.8459
vn 0.3574 0.3959 -0.8459
vn 0.9123 -0.1804 0.3676
vn -0.3568 -0.4222 0.8334
vn -0.9124 0.1758 -0.3696
vn -0.9189 0.3137 -0.2390
vn 0.9189 0.3137 -0.2390
vn 0.3697 -0.7174 0.5904
vn -0.9186 -0.3097 0.2455
vn -0.3715 0.7443 -0.5550
vn 0.3715 0.7443 -0.5550
vn 0.9186 -0.3097 0.2455
vn -0.3697 -0.7174 0.5904
vn 0.3747 0.9076 -0.1893
vn 0.9202 -0.3816 0.0874
vn -0.3736 -0.9020 0.2165
vn -0.9204 0.3822 -0.0826
vn 0.9204 0.3822 -0.0826
vn 0.3736 -0.9020 0.2165
vn -0.9202 -0.3816 0.0874
vn -0.3747 0.9076 -0.1893
vn -0.9233 -0.3841 -0.0000
vn -0.3813 0.9244 -0.0000
vn 0.3813 0.9244 -0.0000
vn 0.9233 -0.3841 -0.0000
vn -0.3813 -0.9244 -0.0000
vn -0.9233 0.3841 -0.0000
vn 0.9233 0.3841 -0.0000
vn 0.3813 -0.9244 -0.0000
vn -0.0000 -0.0000 -1.0000
vn -0.0000 -0.0000 1.0000
vn -0.7805 0.6177 -0.0960
vn 0.7805 0.6177 -0.0960
vn -0.9225 -0.0000 -0.3861
vn -0.9899 -0.0878 -0.1114
vn -0.1450 0.9874 -0.0630
vn 0.1450 0.9874 -0.0630
vn 0.9899 -0.0878 -0.1114
vn 0.1258 0.9669 0.2218
vn 0.9783 -0.0888 0.1874
vn -0.7310 0.6527 0.1992
vn 0.7310 0.6527 0.1992
vn -0.9783 -0.0888 0.1874
vn -0.1258 0.9669 0.2218
vn -0.9940 -0.0000 0.1092
vn -0.7127 -0.0517 0.6996
vn -0.1050 0.8595 0.5002
vn 0.1050 0.8595 0.5002
vn 0.7127 -0.0517 0.6996
vn -0.5340 0.5077 0.6761
vn 0.5340 0.5077 0.6761
vn -0.0000 -1.0000 -0.0000
vn -0.8988 -0.0000 -0.4383
vn 0.9225 -0.0000 -0.3861
vn 0.9940 -0.0000 0.1092
vn 0.8988 -0.0000 -0.4383
vt 0.735109 0.755344
vt 0.735109 0.628488
vt 0.767778 0.627975
vt 0.767778 0.754831
vt 0.750597 0.373566
vt 0.750597 0.246620
vt 0.781685 0.247282
vt 0.781685 0.374228
vt 0.812772 0.246620
vt 0.812772 0.373566
vt 0.768253 0.610986
vt 0.768253 0.484225
vt 0.795798 0.482786
vt 0.795798 0.609547
vt 0.619583 0.831414
vt 0.619583 0.704301
vt 0.650670 0.704301
vt 0.650670 0.831414
vt 0.796580 0.629082
vt 0.796580 0.755938
vt 0.735109 0.610553
vt 0.735109 0.483792
vt 0.588495 0.831414
vt 0.588495 0.704301
vt 0.758748 0.854254
vt 0.767750 0.832355
vt 0.783177 0.832272
vt 0.792179 0.854073
vt 0.815818 0.830179
vt 0.794086 0.821246
vt 0.794086 0.805735
vt 0.815818 0.796567
vt 0.792179 0.772927
vt 0.783177 0.794826
vt 0.767750 0.794909
vt 0.758748 0.773108
vt 0.735109 0.830614
vt 0.756841 0.821446
vt 0.756841 0.805936
vt 0.735109 0.797002
vt 0.409586 0.934184
vt 0.409586 0.071748
vt 0.423931 0.072053
vt 0.423931 0.934490
vt 0.438277 0.071748
vt 0.438277 0.934184
vt 0.380212 0.988952
vt 0.225371 0.141805
vt 0.237755 0.138866
vt 0.392596 0.986013
vt 0.469613 0.909851
vt 0.469613 0.046274
vt 0.483958 0.046274
vt 0.483958 0.909851
vt 0.023361 0.988480
vt 0.180324 0.141066
vt 0.193300 0.143989
vt 0.036337 0.991403
vt 0.365130 0.991505
vt 0.210290 0.144358
vt 0.455267 0.909851
vt 0.455267 0.046274
vt 0.008495 0.985967
vt 0.165458 0.138554
vt 0.225977 0.082275
vt 0.238893 0.090420
vt 0.455267 0.008495
vt 0.469613 0.012676
vt 0.153946 0.097893
vt 0.166617 0.089712
vt 0.409586 0.012454
vt 0.423931 0.008495
vt 0.438277 0.012454
vt 0.249111 0.098180
vt 0.483958 0.008495
vt 0.177397 0.081942
vt 0.139523 0.058652
vt 0.145208 0.046225
vt 0.257731 0.046492
vt 0.265620 0.059303
vt 0.734896 0.165134
vt 0.734896 0.137919
vt 0.749242 0.136277
vt 0.749242 0.161005
vt 0.131948 0.071489
vt 0.717907 0.013199
vt 0.717907 0.047939
vt 0.703561 0.045488
vt 0.703561 0.008495
vt 0.689215 0.047939
vt 0.689215 0.013199
vt 0.270812 0.071730
vt 0.763588 0.137919
vt 0.763588 0.165134
vt 0.703561 0.102135
vt 0.689215 0.102324
vt 0.312125 0.038550
vt 0.312083 0.052622
vt 0.749242 0.093255
vt 0.763588 0.092582
vt 0.092381 0.037994
vt 0.092759 0.023933
vt 0.309471 0.024092
vt 0.734896 0.092582
vt 0.090111 0.052466
vt 0.717907 0.102324
vt 0.008495 0.036532
vt 0.012037 0.022308
vt 0.717907 0.183190
vt 0.703561 0.182462
vt 0.689215 0.183190
vt 0.391383 0.022701
vt 0.392596 0.036523
vt 0.749242 0.008625
vt 0.763588 0.008495
vt 0.013688 0.008495
vt 0.387473 0.008495
vt 0.734896 0.008495
vt 0.540645 0.797840
vt 0.564350 0.827409
vt 0.541397 0.845599
vt 0.526379 0.803782
vt 0.512112 0.797840
vt 0.500948 0.842332
vt 0.500948 0.783494
vt 0.506202 0.783494
vt 0.512112 0.769148
vt 0.500948 0.724655
vt 0.541397 0.721389
vt 0.526379 0.763206
vt 0.540645 0.769148
vt 0.564350 0.739579
vt 0.570789 0.783494
vt 0.546555 0.783494
vt 0.680441 0.808845
vt 0.667660 0.808845
vt 0.667660 0.756573
vt 0.680441 0.756573
vt 0.541573 0.704399
vt 0.544726 0.585344
vt 0.571506 0.581987
vt 0.563366 0.701668
vt 0.666239 0.433355
vt 0.662543 0.311343
vt 0.692472 0.307436
vt 0.690595 0.430175
vt 0.658840 0.033574
vt 0.671593 0.033339
vt 0.670406 0.091961
vt 0.657652 0.092196
vt 0.500948 0.703909
vt 0.502966 0.584741
vt 0.598827 0.009288
vt 0.608876 0.130156
vt 0.554912 0.129181
vt 0.554912 0.008495
vt 0.500948 0.130156
vt 0.510997 0.009288
vt 0.733607 0.309621
vt 0.730704 0.432165
vt 0.554912 0.195862
vt 0.510095 0.196468
vt 0.694619 0.246620
vt 0.733607 0.248589
vt 0.710195 0.729401
vt 0.697431 0.729401
vt 0.697431 0.704301
vt 0.710195 0.704301
vt 0.542331 0.518916
vt 0.558707 0.516129
vt 0.675621 0.250052
vt 0.667660 0.704301
vt 0.680441 0.704301
vt 0.502818 0.518415
vt 0.599729 0.196468
vt 0.672225 0.206704
vt 0.659472 0.206940
vt 0.501208 0.482786
vt 0.530558 0.483034
vt 0.577063 0.229631
vt 0.554912 0.229231
vt 0.532761 0.229631
vt 0.798156 0.135256
vt 0.808233 0.103202
vt 0.837539 0.101555
vt 0.837539 0.131923
vt 0.710195 0.754501
vt 0.697431 0.754501
vt 0.798156 0.008495
vt 0.808233 0.040549
vt 0.796640 0.049724
vt 0.780577 0.027058
vt 0.780577 0.116692
vt 0.796640 0.094027
vt 0.837539 0.042196
vt 0.837539 0.071875
vt 0.793388 0.071875
vt 0.625523 0.458471
vt 0.632089 0.465797
vt 0.573251 0.465797
vt 0.573251 0.458471
vt 0.514412 0.465797
vt 0.520979 0.458471
vt 0.638063 0.344330
vt 0.645554 0.343248
vt 0.500948 0.343248
vt 0.508438 0.344330
vt 0.513204 0.278039
vt 0.534926 0.281061
vt 0.611575 0.281061
vt 0.633298 0.278039
vt 0.573251 0.253946
vt 0.573251 0.246620
vt 0.602930 0.246620
vt 0.598351 0.253946
vt 0.548151 0.253946
vt 0.543572 0.246620
vt 0.653307 0.687311
vt 0.653307 0.572088
vt 0.718120 0.573170
vt 0.705579 0.687311
vt 0.601035 0.687311
vt 0.588495 0.573170
vt 0.653307 0.506879
vt 0.691632 0.509901
vt 0.614983 0.509901
vt 0.628207 0.482786
vt 0.653307 0.482786
vt 0.678407 0.482786
vt 0.659472 0.008730
vt 0.672225 0.008495
vt 0.638611 0.105443
vt 0.625865 0.105360
vt 0.627205 0.037838
vt 0.639950 0.037921
vt 0.640663 0.214171
vt 0.627917 0.214088
vt 0.627917 0.008495
vt 0.640663 0.008578
s 0
usemtl Strret_Light_Metal
f 4/1/1 12/2/1 11/3/1 3/4/1
f 2/5/2 10/6/2 9/7/2 1/8/2
f 1/8/3 9/7/3 16/9/3 8/10/3
f 7/11/4 15/12/4 14/13/4 6/14/4
f 5/15/5 13/16/5 12/17/5 4/18/5
f 3/4/6 11/3/6 10/19/6 2/20/6
f 8/21/7 16/22/7 15/12/7 7/11/7
f 6/23/8 14/24/8 13/16/8 5/15/8
f 15/25/9 23/26/9 22/27/9 14/28/9
f 13/29/9 21/30/9 20/31/9 12/32/9
f 11/33/9 19/34/9 18/35/9 10/36/9
f 16/37/9 24/38/9 23/26/9 15/25/9
f 14/28/9 22/27/9 21/30/9 13/29/9
f 12/32/9 20/31/9 19/34/9 11/33/9
f 10/36/9 18/35/9 17/39/9 9/40/9
f 9/40/9 17/39/9 24/38/9 16/37/9
f 18/41/2 26/42/2 25/43/2 17/44/2
f 17/44/3 25/43/3 32/45/3 24/46/3
f 23/47/4 31/48/4 30/49/4 22/50/4
f 21/51/5 29/52/5 28/53/5 20/54/5
f 19/55/6 27/56/6 26/57/6 18/58/6
f 24/59/7 32/60/7 31/48/7 23/47/7
f 22/61/8 30/62/8 29/52/8 21/51/8
f 20/63/1 28/64/1 27/56/1 19/55/1
f 32/60/10 40/65/10 39/66/10 31/48/10
f 30/62/11 38/67/11 37/68/11 29/52/11
f 28/64/12 36/69/12 35/70/12 27/56/12
f 26/42/13 34/71/13 33/72/13 25/43/13
f 25/43/14 33/72/14 40/73/14 32/45/14
f 31/48/15 39/66/15 38/74/15 30/49/15
f 29/52/16 37/68/16 36/75/16 28/53/16
f 27/56/17 35/70/17 34/76/17 26/57/17
f 35/70/18 43/77/18 42/78/18 34/76/18
f 40/65/19 48/79/19 47/80/19 39/66/19
f 38/81/20 46/82/20 45/83/20 37/84/20
f 36/69/21 44/85/21 43/77/21 35/70/21
f 34/86/22 42/87/22 41/88/22 33/89/22
f 33/89/23 41/88/23 48/90/23 40/91/23
f 39/66/24 47/80/24 46/92/24 38/74/24
f 37/84/25 45/83/25 44/93/25 36/94/25
f 41/88/26 49/95/26 56/96/26 48/90/26
f 47/80/27 55/97/27 54/98/27 46/92/27
f 45/83/28 53/99/28 52/100/28 44/93/28
f 43/77/29 51/101/29 50/102/29 42/78/29
f 48/79/30 56/103/30 55/97/30 47/80/30
f 46/82/31 54/104/31 53/99/31 45/83/31
f 44/85/32 52/105/32 51/101/32 43/77/32
f 42/87/33 50/106/33 49/95/33 41/88/33
f 52/105/34 60/107/34 59/108/34 51/101/34
f 50/106/35 58/109/35 57/110/35 49/95/35
f 49/95/36 57/110/36 64/111/36 56/96/36
f 55/97/37 63/112/37 62/113/37 54/98/37
f 53/99/38 61/114/38 60/115/38 52/100/38
f 51/101/39 59/108/39 58/116/39 50/102/39
f 56/103/40 64/117/40 63/112/40 55/97/40
f 54/104/41 62/118/41 61/114/41 53/99/41
f 64/119/42 72/120/42 71/121/42 63/122/42
f 62/123/42 97/124/42 95/125/42 61/126/42
f 60/127/42 96/128/42 67/129/42 59/130/42
f 58/131/42 66/132/42 65/133/42 57/134/42
f 57/134/42 65/133/42 72/120/42 64/119/42
f 63/122/42 71/121/42 97/124/42 62/123/42
f 61/126/42 95/125/42 96/128/42 60/127/42
f 59/130/42 67/129/42 66/132/42 58/131/42
f 70/135/43 114/136/43 108/137/43 69/138/43
f 67/139/44 75/140/44 74/141/44 66/142/44
f 72/143/45 79/144/45 78/145/45 71/146/45
f 100/147/46 111/148/46 107/149/46 99/150/46
f 96/151/47 98/152/47 75/140/47 67/139/47
f 66/153/48 74/154/48 73/155/48 65/156/48
f 65/156/49 73/155/49 79/157/49 72/158/49
f 71/146/50 78/145/50 77/159/50 97/160/50
f 73/155/51 80/161/51 86/162/51 79/157/51
f 78/145/52 85/163/52 84/164/52 77/159/52
f 91/165/42 112/166/42 116/167/42 92/168/42
f 75/140/53 82/169/53 81/170/53 74/141/53
f 79/144/54 86/171/54 85/163/54 78/145/54
f 69/138/43 108/137/43 113/172/43 68/173/43
f 98/152/55 101/174/55 82/169/55 75/140/55
f 74/154/56 81/175/56 80/161/56 73/155/56
f 99/150/57 107/149/57 114/176/57 70/177/57
f 101/174/58 103/178/58 89/179/58 82/169/58
f 81/175/59 88/180/59 87/181/59 80/161/59
f 80/161/60 87/181/60 94/182/60 86/162/60
f 85/183/61 93/184/61 104/185/61 84/186/61
f 90/187/42 115/188/42 112/166/42 91/165/42
f 82/189/62 89/190/62 88/191/62 81/192/62
f 86/193/63 94/194/63 93/184/63 85/183/63
f 88/191/43 89/190/43 103/195/43 102/196/43 104/185/43 93/184/43 94/194/43 87/197/43
f 68/198/64 96/199/64 95/200/64 69/201/64
f 69/201/64 95/200/64 97/202/64 70/203/64
f 76/204/64 98/205/64 96/199/64 68/198/64
f 70/203/64 97/202/64 77/206/64 99/207/64
f 99/207/64 77/206/64 84/208/64 100/209/64
f 83/210/64 101/211/64 98/205/64 76/204/64
f 91/212/64 102/213/64 103/214/64 90/215/64
f 92/216/64 104/217/64 102/213/64 91/212/64
f 100/209/64 84/208/64 104/217/64 92/216/64
f 90/215/64 103/214/64 101/211/64 83/210/64
f 92/230/65 116/231/65 111/148/65 100/147/65
f 76/232/66 106/233/66 110/234/66 83/235/66
f 68/236/67 113/237/67 106/233/67 76/232/67
f 83/235/68 110/234/68 115/238/68 90/239/68
usemtl Street_Light
f 108/218/64 105/219/64 106/220/64 113/221/64
f 114/222/64 107/223/64 105/219/64 108/218/64
f 105/219/64 109/224/64 110/225/64 106/220/64
f 107/223/64 111/226/64 109/224/64 105/219/64
f 111/226/64 116/227/64 112/228/64 109/224/64
f 109/224/64 112/228/64 115/229/64 110/225/64
