# Blender 3.6.2
# www.blender.org
mtllib trafficcone.mtl
o Circle
v 0.000000 0.000000 -1.171581
v -0.828433 0.000000 -0.828433
v -1.171581 0.000000 0.000000
v -0.828433 0.000000 0.828433
v 0.000000 0.000000 1.171581
v 0.828433 0.000000 0.828433
v 1.171581 0.000000 0.000000
v 0.828433 0.000000 -0.828433
v 0.000000 0.130533 -1.171581
v -0.828433 0.130533 -0.828433
v -1.171581 0.130533 0.000000
v -0.828433 0.130533 0.828433
v 0.000000 0.130533 1.171581
v 0.828433 0.130533 0.828433
v 1.171581 0.130533 0.000000
v 0.828433 0.130533 -0.828433
v -0.000000 0.130533 -0.705092
v -0.498575 0.130533 -0.498575
v -0.705092 0.130533 0.000000
v -0.498575 0.130533 0.498575
v -0.000000 0.130533 0.705092
v 0.498575 0.130533 0.498575
v 0.705092 0.130533 0.000000
v 0.498575 0.130533 -0.498575
v -0.000000 2.485308 -0.243053
v -0.171865 2.485308 -0.171865
v -0.243053 2.485308 -0.000000
v -0.171865 2.485308 0.171865
v -0.000000 2.485308 0.243053
v 0.171865 2.485308 0.171865
v 0.243053 2.485308 -0.000000
v 0.171865 2.485308 -0.171865
v -0.000000 2.485308 -0.137512
v -0.097235 2.485308 -0.097235
v -0.137512 2.485308 -0.000000
v -0.097235 2.485308 0.097235
v -0.000000 2.485308 0.137512
v 0.097235 2.485308 0.097235
v 0.137512 2.485308 -0.000000
v 0.097235 2.485308 -0.097235
v -0.000000 0.004826 -0.598858
v -0.423456 0.004826 -0.423456
v -0.598858 0.004826 -0.000000
v -0.423456 0.004826 0.423456
v -0.000000 0.004826 0.598858
v 0.423456 0.004826 0.423456
v 0.598858 0.004826 -0.000000
v 0.423456 0.004826 -0.423456
v 0.366886 1.854195 -0.000000
v 0.259428 1.854195 -0.259428
v -0.000000 1.854195 0.366886
v 0.259428 1.854195 0.259428
v -0.366886 1.854195 -0.000000
v -0.259428 1.854195 0.259428
v -0.000000 1.854195 -0.366886
v -0.259428 1.854195 -0.259428
v 0.294734 1.599723 -0.294734
v 0.294734 1.599723 0.294734
v -0.294734 1.599723 0.294734
v -0.294734 1.599723 -0.294734
v 0.416817 1.599723 -0.000000
v -0.000000 1.599723 0.416817
v -0.416817 1.599723 -0.000000
v -0.000000 1.599723 -0.416817
v 0.393102 0.890738 -0.393102
v 0.393102 0.890738 0.393102
v -0.393102 0.890738 0.393102
v -0.393102 0.890738 -0.393102
v 0.555930 0.890738 -0.000000
v -0.000000 0.890738 0.555930
v -0.555930 0.890738 -0.000000
v -0.000000 0.890738 -0.555930
v 0.442604 0.533944 -0.442604
v 0.442604 0.533944 0.442604
v -0.442604 0.533944 0.442604
v -0.442604 0.533944 -0.442604
v 0.625937 0.533944 -0.000000
v -0.000000 0.533944 0.625937
v -0.625937 0.533944 -0.000000
v -0.000000 0.533944 -0.625937
vn 0.9239 -0.0000 -0.3827
vn 0.3827 -0.0000 0.9239
vn -0.9239 -0.0000 0.3827
vn -0.3827 -0.0000 -0.9239
vn 0.3827 -0.0000 -0.9239
vn 0.9239 -0.0000 0.3827
vn -0.3827 -0.0000 0.9239
vn -0.9239 -0.0000 -0.3827
vn -0.0000 1.0000 -0.0000
vn 0.9091 0.1784 -0.3765
vn 0.3765 0.1784 0.9091
vn -0.9091 0.1784 0.3765
vn -0.3765 0.1784 -0.9091
vn 0.3765 0.1784 -0.9091
vn 0.9091 0.1784 0.3765
vn -0.3765 0.1784 0.9091
vn -0.9091 0.1784 -0.3765
vn 0.9105 -0.1694 0.3772
vn -0.9105 -0.1694 0.3772
vn -0.3772 -0.1694 -0.9105
vn 0.9105 -0.1694 -0.3772
vn 0.3772 -0.1694 0.9105
vn -0.3772 -0.1694 0.9105
vn -0.9105 -0.1694 -0.3772
vn 0.3772 -0.1694 -0.9105
vn -0.0035 -1.0000 0.0084
vn -0.0084 -1.0000 0.0035
vn -0.0084 -1.0000 -0.0035
vn -0.0035 -1.0000 -0.0084
vn 0.0035 -1.0000 -0.0084
vn 0.0084 -1.0000 -0.0035
vn 0.0084 -1.0000 0.0035
vn 0.0035 -1.0000 0.0084
vt 0.334756 0.710698
vt 0.353623 0.709885
vt 0.359240 0.840201
vt 0.340373 0.841014
vt 0.334756 0.471095
vt 0.353623 0.470282
vt 0.359240 0.600598
vt 0.340373 0.601411
vt 0.375154 0.471095
vt 0.394021 0.470282
vt 0.399638 0.600598
vt 0.380771 0.601411
vt 0.375154 0.710698
vt 0.394021 0.709885
vt 0.399638 0.840201
vt 0.380771 0.841014
vt 0.340373 0.618137
vt 0.359240 0.617324
vt 0.340373 0.378534
vt 0.359240 0.377721
vt 0.380771 0.378534
vt 0.399638 0.377721
vt 0.380771 0.618137
vt 0.399638 0.617324
vt 0.817224 0.691185
vt 0.791256 0.628493
vt 0.846764 0.572984
vt 0.909457 0.598953
vt 0.846764 0.494484
vt 0.909457 0.468516
vt 0.817224 0.376283
vt 0.791256 0.438975
vt 0.712755 0.438975
vt 0.686787 0.376283
vt 0.594554 0.468516
vt 0.657247 0.494484
vt 0.657247 0.572984
vt 0.594554 0.598953
vt 0.686787 0.691185
vt 0.712755 0.628493
vt 0.509081 0.472576
vt 0.512333 0.379340
vt 0.539373 0.378282
vt 0.549897 0.470980
vt 0.509081 0.104988
vt 0.512333 0.011752
vt 0.539373 0.010694
vt 0.549897 0.103392
vt 0.082292 0.474227
vt 0.089185 0.381189
vt 0.116246 0.381189
vt 0.123139 0.474227
vt 0.259169 0.472750
vt 0.266062 0.379712
vt 0.293122 0.379712
vt 0.300016 0.472750
vt 0.480103 0.470702
vt 0.493136 0.378098
vt 0.558415 0.375544
vt 0.578641 0.466848
vt 0.558415 0.007957
vt 0.578641 0.099260
vt 0.230286 0.469745
vt 0.246928 0.377721
vt 0.659883 0.726233
vt 0.645699 0.732108
vt 0.634873 0.721283
vt 0.640749 0.707099
vt 0.613688 0.707099
vt 0.619564 0.721283
vt 0.608738 0.732108
vt 0.594554 0.726233
vt 0.594554 0.753293
vt 0.608738 0.747418
vt 0.619564 0.758244
vt 0.613688 0.772428
vt 0.640749 0.772428
vt 0.634873 0.758244
vt 0.645699 0.747418
vt 0.659883 0.753293
vt 0.221475 0.008616
vt 0.298758 0.361808
vt 0.251445 0.358937
vt 0.210611 0.007957
vt 0.096093 0.007957
vt 0.121775 0.360369
vt 0.055102 0.360369
vt 0.080784 0.007957
vt 0.418113 0.008616
vt 0.428595 0.361808
vt 0.361984 0.358937
vt 0.402818 0.007957
vt 0.635546 0.007957
vt 0.661227 0.360369
vt 0.594554 0.360369
vt 0.620236 0.007957
vt 0.184833 0.361808
vt 0.195315 0.008616
vt 0.106919 0.009083
vt 0.168920 0.365275
vt 0.007957 0.365275
vt 0.069958 0.009083
vt 0.314671 0.361808
vt 0.391953 0.008616
vt 0.915074 0.198745
vt 0.992043 0.230627
vt 0.899811 0.322859
vt 0.867929 0.245890
vt 0.769373 0.322859
vt 0.801255 0.245890
vt 0.677141 0.230627
vt 0.754110 0.198745
vt 0.677141 0.100189
vt 0.754110 0.132071
vt 0.769374 0.007957
vt 0.801255 0.084926
vt 0.899811 0.007957
vt 0.867929 0.084926
vt 0.992043 0.100190
vt 0.915074 0.132071
vt 0.223575 0.506850
vt 0.256389 0.510265
vt 0.046698 0.508326
vt 0.053409 0.471221
vt 0.079512 0.511741
vt 0.474848 0.140453
vt 0.480103 0.103114
vt 0.507770 0.142582
vt 0.474848 0.508041
vt 0.507770 0.510170
vt 0.302795 0.510265
vt 0.125918 0.511741
vt 0.554141 0.140769
vt 0.554141 0.508357
vt 0.504117 0.614911
vt 0.565964 0.612492
vt 0.504117 0.247323
vt 0.565964 0.244904
vt 0.071768 0.616259
vt 0.133662 0.616259
vt 0.248645 0.614783
vt 0.310539 0.614783
vt 0.460207 0.612071
vt 0.460207 0.244483
vt 0.028003 0.611705
vt 0.204880 0.610228
vt 0.195471 0.662253
vt 0.244748 0.667381
vt 0.018594 0.663730
vt 0.067871 0.668858
vt 0.452839 0.296836
vt 0.502279 0.300034
vt 0.452839 0.664424
vt 0.502279 0.667622
vt 0.314436 0.667381
vt 0.137560 0.668858
vt 0.571914 0.297310
vt 0.571914 0.664898
vt 0.500200 0.727219
vt 0.578641 0.724151
vt 0.500200 0.359631
vt 0.578641 0.356563
vt 0.063465 0.728328
vt 0.141966 0.728328
vt 0.240342 0.726852
vt 0.318843 0.726852
vt 0.444508 0.723617
vt 0.444508 0.356029
vt 0.007957 0.722552
vt 0.184833 0.721075
s 0
usemtl TrafficCone.001
f 8/1/1 16/2/1 15/3/1 7/4/1
f 6/5/2 14/6/2 13/7/2 5/8/2
f 4/9/3 12/10/3 11/11/3 3/12/3
f 2/13/4 10/14/4 9/15/4 1/16/4
f 1/17/5 9/18/5 16/2/5 8/1/5
f 7/19/6 15/20/6 14/6/6 6/5/6
f 5/21/7 13/22/7 12/10/7 4/9/7
f 3/23/8 11/24/8 10/14/8 2/13/8
f 10/25/9 18/26/9 17/27/9 9/28/9
f 9/28/9 17/27/9 24/29/9 16/30/9
f 15/31/9 23/32/9 22/33/9 14/34/9
f 13/35/9 21/36/9 20/37/9 12/38/9
f 11/39/9 19/40/9 18/26/9 10/25/9
f 16/30/9 24/29/9 23/32/9 15/31/9
f 14/34/9 22/33/9 21/36/9 13/35/9
f 12/38/9 20/37/9 19/40/9 11/39/9
f 50/41/10 32/42/10 31/43/10 49/44/10
f 52/45/11 30/46/11 29/47/11 51/48/11
f 54/49/12 28/50/12 27/51/12 53/52/12
f 56/53/13 26/54/13 25/55/13 55/56/13
f 55/57/14 25/58/14 32/42/14 50/41/14
f 49/44/15 31/43/15 30/59/15 52/60/15
f 51/48/16 29/47/16 28/61/16 54/62/16
f 53/63/17 27/64/17 26/54/17 56/53/17
f 32/65/9 40/66/9 39/67/9 31/68/9
f 30/69/9 38/70/9 37/71/9 29/72/9
f 28/73/9 36/74/9 35/75/9 27/76/9
f 26/77/9 34/78/9 33/79/9 25/80/9
f 25/80/9 33/79/9 40/66/9 32/65/9
f 31/68/9 39/67/9 38/70/9 30/69/9
f 29/72/9 37/71/9 36/74/9 28/73/9
f 27/76/9 35/75/9 34/78/9 26/77/9
f 35/81/18 43/82/18 42/83/18 34/84/18
f 40/85/19 48/86/19 47/87/19 39/88/19
f 38/89/20 46/90/20 45/91/20 37/92/20
f 36/93/21 44/94/21 43/95/21 35/96/21
f 34/84/22 42/83/22 41/97/22 33/98/22
f 33/99/23 41/100/23 48/86/23 40/85/23
f 39/88/24 47/87/24 46/101/24 38/102/24
f 37/92/25 45/91/25 44/103/25 36/104/25
f 41/105/26 1/106/26 8/107/26 48/108/26
f 48/108/27 8/107/27 7/109/27 47/110/27
f 47/110/28 7/109/28 6/111/28 46/112/28
f 46/112/29 6/111/29 5/113/29 45/114/29
f 45/114/30 5/113/30 4/115/30 44/116/30
f 44/116/31 4/115/31 3/117/31 43/118/31
f 43/118/32 3/117/32 2/119/32 42/120/32
f 42/120/33 2/119/33 1/106/33 41/105/33
f 65/135/10 57/130/10 61/134/10 69/136/10
f 66/137/11 58/128/11 62/133/11 70/138/11
f 67/139/12 59/125/12 63/132/12 71/140/12
f 68/141/13 60/122/13 64/131/13 72/142/13
f 72/143/14 64/129/14 57/130/14 65/135/14
f 69/144/15 61/126/15 58/128/15 66/137/15
f 70/145/16 62/123/16 59/125/16 67/139/16
f 71/146/17 63/121/17 60/122/17 68/141/17
f 24/159/10 73/154/10 77/158/10 23/160/10
f 22/161/11 74/152/11 78/157/11 21/162/11
f 20/163/12 75/150/12 79/156/12 19/164/12
f 18/165/13 76/148/13 80/155/13 17/166/13
f 17/167/14 80/153/14 73/154/14 24/159/14
f 23/168/15 77/151/15 74/152/15 22/161/15
f 21/169/16 78/149/16 75/150/16 20/163/16
f 19/170/17 79/147/17 76/148/17 18/165/17
usemtl TrafficConeStripes.001
f 63/121/17 53/63/17 56/53/17 60/122/17
f 62/123/16 51/124/16 54/49/16 59/125/16
f 61/126/15 49/127/15 52/45/15 58/128/15
f 64/129/14 55/57/14 50/41/14 57/130/14
f 60/122/13 56/53/13 55/56/13 64/131/13
f 59/125/12 54/49/12 53/52/12 63/132/12
f 58/128/11 52/45/11 51/48/11 62/133/11
f 57/130/10 50/41/10 49/44/10 61/134/10
f 79/147/17 71/146/17 68/141/17 76/148/17
f 78/149/16 70/145/16 67/139/16 75/150/16
f 77/151/15 69/144/15 66/137/15 74/152/15
f 80/153/14 72/143/14 65/135/14 73/154/14
f 76/148/13 68/141/13 72/142/13 80/155/13
f 75/150/12 67/139/12 71/140/12 79/156/12
f 74/152/11 66/137/11 70/138/11 78/157/11
f 73/154/10 65/135/10 69/136/10 77/158/10
