# Blender 3.6.2
# www.blender.org
mtllib trafficlight.mtl
o Circle
v 0.000000 0.000000 -0.343479
v -0.242877 0.000000 -0.242877
v -0.343479 0.000000 0.000000
v -0.242877 0.000000 0.242877
v 0.000000 0.000000 0.343479
v 0.242877 0.000000 0.242877
v 0.343479 0.000000 0.000000
v 0.242877 0.000000 -0.242877
v 0.000000 0.117200 -0.150523
v -0.106436 0.117200 -0.106436
v -0.150523 0.117200 0.000000
v -0.106436 0.117200 0.106436
v 0.000000 0.117200 0.150523
v 0.106436 0.117200 0.106436
v 0.150523 0.117200 0.000000
v 0.106436 0.117200 -0.106436
v -0.242877 0.117200 -0.242877
v 0.000000 0.117200 -0.343479
v -0.343479 0.117200 0.000000
v -0.242877 0.117200 0.242877
v 0.000000 0.117200 0.343479
v 0.242877 0.117200 0.242877
v 0.343479 0.117200 0.000000
v 0.242877 0.117200 -0.242877
v 0.000000 7.263917 -0.150523
v -0.106436 7.263917 -0.106436
v -0.150523 7.263917 0.000000
v -0.106436 7.263917 0.106436
v 0.000000 7.263917 0.150523
v 0.106436 7.263917 0.106436
v 0.150523 7.263917 0.000000
v 0.106436 7.263917 -0.106436
v -0.266869 7.239271 0.266869
v -0.266869 9.156008 0.266869
v -0.266869 7.239271 -0.266869
v -0.266869 9.156008 -0.266869
v 0.266869 7.239271 0.266869
v 0.266869 9.156008 0.266869
v 0.266869 7.239271 -0.266869
v 0.266869 9.156008 -0.266869
v -0.460423 9.378570 -0.266869
v -0.460423 7.016709 -0.266869
v 0.460423 7.016709 -0.266869
v 0.460423 9.378570 -0.266869
v -0.460423 9.378570 -0.479569
v -0.460423 7.016709 -0.479569
v 0.460423 7.016709 -0.479569
v 0.460423 9.378570 -0.479569
v 0.000000 7.791636 -0.417664
v -0.249240 7.688396 -0.417664
v -0.352478 7.439157 -0.417664
v -0.249240 7.189918 -0.417664
v 0.000000 7.086678 -0.417664
v 0.249240 7.189918 -0.417664
v 0.352478 7.439157 -0.417664
v 0.249240 7.688396 -0.417664
v 0.000000 7.791636 -0.530350
v -0.249240 7.688396 -0.530350
v -0.352478 7.439157 -0.530350
v -0.249240 7.189918 -0.530350
v 0.000000 7.086678 -0.530350
v 0.249240 7.189918 -0.530350
v 0.352478 7.439157 -0.530350
v 0.249240 7.688396 -0.530350
v 0.000000 7.714090 -0.530350
v -0.194407 7.633564 -0.530350
v -0.274933 7.439157 -0.530350
v -0.194407 7.244750 -0.530350
v 0.000000 7.164224 -0.530350
v 0.194407 7.244750 -0.530350
v 0.274933 7.439157 -0.530350
v 0.194407 7.633564 -0.530350
v 0.000000 7.714090 -0.475380
v -0.194407 7.633564 -0.475380
v -0.274933 7.439157 -0.475380
v -0.194407 7.244750 -0.475380
v 0.000000 7.164224 -0.475380
v 0.194407 7.244750 -0.475380
v 0.274933 7.439157 -0.475380
v 0.194407 7.633564 -0.475380
v 0.000000 7.670403 -0.537344
v -0.163515 7.602672 -0.537344
v -0.231245 7.439157 -0.537344
v -0.163515 7.275642 -0.537344
v 0.000000 7.207911 -0.537344
v 0.163515 7.275642 -0.537344
v 0.231245 7.439157 -0.537344
v 0.163515 7.602672 -0.537344
v 0.000000 7.602208 -0.593551
v -0.115294 7.554451 -0.593551
v -0.163051 7.439157 -0.593551
v -0.115294 7.323863 -0.593551
v 0.000000 7.276106 -0.593551
v 0.115294 7.323863 -0.593551
v 0.163051 7.439157 -0.593551
v 0.115294 7.554451 -0.593551
v 0.000000 7.510900 -0.636065
v -0.050730 7.489887 -0.636065
v -0.071742 7.439157 -0.636065
v -0.050730 7.388428 -0.636065
v 0.000000 7.367414 -0.636065
v 0.050730 7.388428 -0.636065
v 0.071742 7.439157 -0.636065
v 0.050730 7.489887 -0.636065
v -0.249240 7.688396 -0.731227
v 0.000000 7.791636 -0.849020
v -0.352478 7.439157 -0.607515
v 0.249240 7.688396 -0.731227
v 0.352478 7.439157 -0.607515
v -0.194407 7.633564 -0.731227
v 0.000000 7.714090 -0.849020
v -0.274933 7.439157 -0.607515
v 0.194407 7.633564 -0.731227
v 0.274933 7.439157 -0.607515
v 0.000000 8.569946 -0.417664
v -0.249240 8.466706 -0.417664
v -0.352478 8.217467 -0.417664
v -0.249240 7.968227 -0.417664
v 0.000000 7.864988 -0.417664
v 0.249240 7.968227 -0.417664
v 0.352478 8.217467 -0.417664
v 0.249240 8.466706 -0.417664
v 0.000000 8.569946 -0.530350
v -0.249240 8.466706 -0.530350
v -0.352478 8.217467 -0.530350
v -0.249240 7.968227 -0.530350
v 0.000000 7.864988 -0.530350
v 0.249240 7.968227 -0.530350
v 0.352478 8.217467 -0.530350
v 0.249240 8.466706 -0.530350
v 0.000000 8.492400 -0.530350
v -0.194407 8.411875 -0.530350
v -0.274933 8.217467 -0.530350
v -0.194407 8.023060 -0.530350
v 0.000000 7.942534 -0.530350
v 0.194407 8.023060 -0.530350
v 0.274933 8.217467 -0.530350
v 0.194407 8.411875 -0.530350
v 0.000000 8.492400 -0.475380
v -0.194407 8.411875 -0.475380
v -0.274933 8.217467 -0.475380
v -0.194407 8.023060 -0.475380
v 0.000000 7.942534 -0.475380
v 0.194407 8.023060 -0.475380
v 0.274933 8.217467 -0.475380
v 0.194407 8.411875 -0.475380
v 0.000000 8.448712 -0.537344
v -0.163515 8.380982 -0.537344
v -0.231245 8.217467 -0.537344
v -0.163515 8.053952 -0.537344
v 0.000000 7.986221 -0.537344
v 0.163515 8.053952 -0.537344
v 0.231245 8.217467 -0.537344
v 0.163515 8.380982 -0.537344
v 0.000000 8.380519 -0.593551
v -0.115294 8.332762 -0.593551
v -0.163051 8.217467 -0.593551
v -0.115294 8.102173 -0.593551
v 0.000000 8.054416 -0.593551
v 0.115294 8.102173 -0.593551
v 0.163051 8.217467 -0.593551
v 0.115294 8.332762 -0.593551
v 0.000000 8.289210 -0.636065
v -0.050730 8.268197 -0.636065
v -0.071742 8.217468 -0.636065
v -0.050730 8.166739 -0.636065
v 0.000000 8.145724 -0.636065
v 0.050730 8.166739 -0.636065
v 0.071742 8.217468 -0.636065
v 0.050730 8.268197 -0.636065
v -0.249240 8.466706 -0.731227
v 0.000000 8.569946 -0.849020
v -0.352478 8.217467 -0.607515
v 0.249240 8.466706 -0.731227
v 0.352478 8.217467 -0.607515
v -0.194407 8.411875 -0.731227
v 0.000000 8.492400 -0.849020
v -0.274933 8.217467 -0.607515
v 0.194407 8.411875 -0.731227
v 0.274933 8.217467 -0.607515
v 0.000000 9.350141 -0.417664
v -0.249240 9.246901 -0.417664
v -0.352478 8.997662 -0.417664
v -0.249240 8.748422 -0.417664
v 0.000000 8.645183 -0.417664
v 0.249240 8.748422 -0.417664
v 0.352478 8.997662 -0.417664
v 0.249240 9.246901 -0.417664
v 0.000000 9.350141 -0.530350
v -0.249240 9.246901 -0.530350
v -0.352478 8.997662 -0.530350
v -0.249240 8.748422 -0.530350
v 0.000000 8.645183 -0.530350
v 0.249240 8.748422 -0.530350
v 0.352478 8.997662 -0.530350
v 0.249240 9.246901 -0.530350
v 0.000000 9.272594 -0.530350
v -0.194407 9.192069 -0.530350
v -0.274933 8.997662 -0.530350
v -0.194407 8.803254 -0.530350
v 0.000000 8.722728 -0.530350
v 0.194407 8.803254 -0.530350
v 0.274933 8.997662 -0.530350
v 0.194407 9.192069 -0.530350
v 0.000000 9.272594 -0.475380
v -0.194407 9.192069 -0.475380
v -0.274933 8.997662 -0.475380
v -0.194407 8.803254 -0.475380
v 0.000000 8.722728 -0.475380
v 0.194407 8.803254 -0.475380
v 0.274933 8.997662 -0.475380
v 0.194407 9.192069 -0.475380
v 0.000000 9.228907 -0.537344
v -0.163515 9.161177 -0.537344
v -0.231245 8.997662 -0.537344
v -0.163515 8.834146 -0.537344
v 0.000000 8.766416 -0.537344
v 0.163515 8.834146 -0.537344
v 0.231245 8.997662 -0.537344
v 0.163515 9.161177 -0.537344
v 0.000000 9.160713 -0.593551
v -0.115294 9.112956 -0.593551
v -0.163051 8.997662 -0.593551
v -0.115294 8.882367 -0.593551
v 0.000000 8.834610 -0.593551
v 0.115294 8.882367 -0.593551
v 0.163051 8.997662 -0.593551
v 0.115294 9.112956 -0.593551
v 0.000000 9.069405 -0.636065
v -0.050730 9.048391 -0.636065
v -0.071742 8.997663 -0.636065
v -0.050730 8.946933 -0.636065
v 0.000000 8.925919 -0.636065
v 0.050730 8.946933 -0.636065
v 0.071742 8.997663 -0.636065
v 0.050730 9.048391 -0.636065
v -0.249240 9.246901 -0.731227
v 0.000000 9.350141 -0.849020
v -0.352478 8.997662 -0.607515
v 0.249240 9.246901 -0.731227
v 0.352478 8.997662 -0.607515
v -0.194407 9.192069 -0.731227
v 0.000000 9.272594 -0.849020
v -0.274933 8.997662 -0.607515
v 0.194407 9.192069 -0.731227
v 0.274933 8.997662 -0.607515
vn -0.0000 -1.0000 -0.0000
vn 0.9239 -0.0000 -0.3827
vn 0.3827 -0.0000 -0.9239
vn 0.9239 -0.0000 0.3827
vn -0.3827 -0.0000 0.9239
vn -0.9239 -0.0000 -0.3827
vn 0.3827 -0.0000 0.9239
vn -0.9239 -0.0000 0.3827
vn -0.3827 -0.0000 -0.9239
vn -0.0000 1.0000 -0.0000
vn -1.0000 -0.0000 -0.0000
vn -0.0000 -0.0000 1.0000
vn 1.0000 -0.0000 -0.0000
vn -0.0000 -0.0000 -1.0000
vn 0.3827 -0.9239 -0.0000
vn -0.9239 -0.3827 -0.0000
vn -0.3827 0.9239 -0.0000
vn 0.3827 0.9239 -0.0000
vn 0.9239 -0.3827 -0.0000
vn -0.3827 -0.9239 -0.0000
vn -0.9239 0.3827 -0.0000
vn 0.9239 0.3827 -0.0000
vn 0.7741 0.3207 -0.5458
vn 0.3207 -0.7741 -0.5458
vn -0.7741 -0.3207 -0.5458
vn -0.3207 0.7741 -0.5458
vn 0.3207 0.7741 -0.5458
vn 0.7741 -0.3207 -0.5458
vn -0.3207 -0.7741 -0.5458
vn -0.7741 0.3207 -0.5458
vn 0.2548 -0.6150 -0.7462
vn -0.6150 -0.2548 -0.7462
vn -0.2548 0.6150 -0.7462
vn 0.2548 0.6150 -0.7462
vn 0.6150 -0.2548 -0.7462
vn -0.2548 -0.6150 -0.7462
vn -0.6150 0.2548 -0.7462
vn 0.6150 0.2548 -0.7462
vn 0.4158 0.1722 -0.8930
vn 0.1722 -0.4158 -0.8930
vn -0.4158 -0.1722 -0.8930
vn -0.1722 0.4158 -0.8930
vn 0.1722 0.4158 -0.8930
vn 0.4158 -0.1722 -0.8930
vn -0.1722 -0.4158 -0.8930
vn -0.4158 0.1722 -0.8930
vn -0.1753 -0.4232 -0.8889
vn 0.1753 -0.4232 -0.8889
vn -0.4069 -0.1686 -0.8978
vn 0.4069 -0.1686 -0.8978
vt 0.000000 0.000000
vt 0.375000 0.000000
vt 0.625000 0.000000
vt 0.625000 0.250000
vt 0.375000 0.250000
vt 0.875000 0.500000
vt 0.625000 0.500000
vt 0.375000 0.500000
vt 0.625000 0.750000
vt 0.375000 0.750000
vt 0.625000 1.000000
vt 0.375000 1.000000
vt 0.125000 0.500000
vt 0.125000 0.750000
vt 0.875000 0.750000
s 0
usemtl Traffic_Light
f 2/1/1 1/1/1 8/1/1 7/1/1 6/1/1 5/1/1 4/1/1 3/1/1
f 15/1/2 16/1/2 32/1/2 31/1/2
f 8/1/3 1/1/3 18/1/3 24/1/3
f 6/1/4 7/1/4 23/1/4 22/1/4
f 4/1/5 5/1/5 21/1/5 20/1/5
f 2/1/6 3/1/6 19/1/6 17/1/6
f 7/1/2 8/1/2 24/1/2 23/1/2
f 5/1/7 6/1/7 22/1/7 21/1/7
f 3/1/8 4/1/8 20/1/8 19/1/8
f 1/1/9 2/1/9 17/1/9 18/1/9
f 10/1/10 9/1/10 18/1/10 17/1/10
f 11/1/10 10/1/10 17/1/10 19/1/10
f 12/1/10 11/1/10 19/1/10 20/1/10
f 13/1/10 12/1/10 20/1/10 21/1/10
f 14/1/10 13/1/10 21/1/10 22/1/10
f 15/1/10 14/1/10 22/1/10 23/1/10
f 16/1/10 15/1/10 23/1/10 24/1/10
f 9/1/10 16/1/10 24/1/10 18/1/10
f 26/1/10 27/1/10 28/1/10 29/1/10 30/1/10 31/1/10 32/1/10 25/1/10
f 13/1/7 14/1/7 30/1/7 29/1/7
f 11/1/8 12/1/8 28/1/8 27/1/8
f 9/1/9 10/1/9 26/1/9 25/1/9
f 16/1/3 9/1/3 25/1/3 32/1/3
f 14/1/4 15/1/4 31/1/4 30/1/4
f 12/1/5 13/1/5 29/1/5 28/1/5
f 10/1/6 11/1/6 27/1/6 26/1/6
f 33/2/11 34/3/11 36/4/11 35/5/11
f 36/6/12 40/7/12 44/7/12 41/6/12
f 39/8/13 40/7/13 38/9/13 37/10/13
f 37/10/12 38/9/12 34/11/12 33/12/12
f 35/13/1 39/8/1 37/10/1 33/14/1
f 40/7/10 36/6/10 34/15/10 38/9/10
f 42/5/11 41/4/11 45/4/11 46/5/11
f 35/5/12 36/4/12 41/4/12 42/5/12
f 40/7/12 39/8/12 43/8/12 44/7/12
f 39/8/12 35/13/12 42/13/12 43/8/12
f 46/5/14 45/4/14 48/7/14 47/8/14
f 44/7/13 43/8/13 47/8/13 48/7/13
f 43/8/1 42/13/1 46/13/1 47/8/1
f 41/6/10 44/7/10 48/7/10 45/6/10
f 54/1/15 53/1/15 61/1/15 62/1/15
f 52/1/16 51/1/16 59/1/16 60/1/16
f 50/1/17 49/1/17 57/1/17 58/1/17
f 49/1/18 56/1/18 64/1/18 57/1/18
f 55/1/19 54/1/19 62/1/19 63/1/19
f 53/1/20 52/1/20 60/1/20 61/1/20
f 51/1/21 50/1/21 58/1/21 59/1/21
f 56/1/22 55/1/22 63/1/22 64/1/22
f 63/1/14 62/1/14 70/1/14 71/1/14
f 61/1/14 60/1/14 68/1/14 69/1/14
f 71/1/16 72/1/16 113/1/16 114/1/16
f 63/1/1 71/1/1 114/1/1 109/1/1
f 62/1/14 61/1/14 69/1/14 70/1/14
f 60/1/14 59/1/14 67/1/14 68/1/14
f 59/1/21 58/1/21 105/1/21 107/1/21
f 57/1/18 64/1/18 108/1/18 106/1/18
f 67/1/19 66/1/19 74/1/19 75/1/19
f 72/1/16 71/1/16 79/1/16 80/1/16
f 70/1/17 69/1/17 77/1/17 78/1/17
f 68/1/22 67/1/22 75/1/22 76/1/22
f 66/1/15 65/1/15 73/1/15 74/1/15
f 65/1/20 72/1/20 80/1/20 73/1/20
f 71/1/21 70/1/21 78/1/21 79/1/21
f 69/1/18 68/1/18 76/1/18 77/1/18
f 107/1/47 105/1/47 110/1/47 112/1/47
f 108/1/48 109/1/48 114/1/48 113/1/48
f 105/1/49 106/1/49 111/1/49 110/1/49
f 106/1/50 108/1/50 113/1/50 111/1/50
f 67/1/1 59/1/1 107/1/1 112/1/1
f 65/1/15 66/1/15 110/1/15 111/1/15
f 64/1/22 63/1/22 109/1/22 108/1/22
f 72/1/20 65/1/20 111/1/20 113/1/20
f 58/1/17 57/1/17 106/1/17 105/1/17
f 66/1/19 67/1/19 112/1/19 110/1/19
f 120/1/15 119/1/15 127/1/15 128/1/15
f 118/1/16 117/1/16 125/1/16 126/1/16
f 116/1/17 115/1/17 123/1/17 124/1/17
f 115/1/18 122/1/18 130/1/18 123/1/18
f 121/1/19 120/1/19 128/1/19 129/1/19
f 119/1/20 118/1/20 126/1/20 127/1/20
f 117/1/21 116/1/21 124/1/21 125/1/21
f 122/1/22 121/1/22 129/1/22 130/1/22
f 129/1/14 128/1/14 136/1/14 137/1/14
f 127/1/14 126/1/14 134/1/14 135/1/14
f 137/1/16 138/1/16 179/1/16 180/1/16
f 129/1/1 137/1/1 180/1/1 175/1/1
f 128/1/14 127/1/14 135/1/14 136/1/14
f 126/1/14 125/1/14 133/1/14 134/1/14
f 125/1/21 124/1/21 171/1/21 173/1/21
f 123/1/18 130/1/18 174/1/18 172/1/18
f 133/1/19 132/1/19 140/1/19 141/1/19
f 138/1/16 137/1/16 145/1/16 146/1/16
f 136/1/17 135/1/17 143/1/17 144/1/17
f 134/1/22 133/1/22 141/1/22 142/1/22
f 132/1/15 131/1/15 139/1/15 140/1/15
f 131/1/20 138/1/20 146/1/20 139/1/20
f 137/1/21 136/1/21 144/1/21 145/1/21
f 135/1/18 134/1/18 142/1/18 143/1/18
f 173/1/47 171/1/47 176/1/47 178/1/47
f 174/1/48 175/1/48 180/1/48 179/1/48
f 171/1/49 172/1/49 177/1/49 176/1/49
f 172/1/50 174/1/50 179/1/50 177/1/50
f 133/1/1 125/1/1 173/1/1 178/1/1
f 131/1/15 132/1/15 176/1/15 177/1/15
f 130/1/22 129/1/22 175/1/22 174/1/22
f 138/1/20 131/1/20 177/1/20 179/1/20
f 124/1/17 123/1/17 172/1/17 171/1/17
f 132/1/19 133/1/19 178/1/19 176/1/19
f 186/1/15 185/1/15 193/1/15 194/1/15
f 184/1/16 183/1/16 191/1/16 192/1/16
f 182/1/17 181/1/17 189/1/17 190/1/17
f 181/1/18 188/1/18 196/1/18 189/1/18
f 187/1/19 186/1/19 194/1/19 195/1/19
f 185/1/20 184/1/20 192/1/20 193/1/20
f 183/1/21 182/1/21 190/1/21 191/1/21
f 188/1/22 187/1/22 195/1/22 196/1/22
f 195/1/14 194/1/14 202/1/14 203/1/14
f 193/1/14 192/1/14 200/1/14 201/1/14
f 203/1/16 204/1/16 245/1/16 246/1/16
f 195/1/1 203/1/1 246/1/1 241/1/1
f 194/1/14 193/1/14 201/1/14 202/1/14
f 192/1/14 191/1/14 199/1/14 200/1/14
f 191/1/21 190/1/21 237/1/21 239/1/21
f 189/1/18 196/1/18 240/1/18 238/1/18
f 199/1/19 198/1/19 206/1/19 207/1/19
f 204/1/16 203/1/16 211/1/16 212/1/16
f 202/1/17 201/1/17 209/1/17 210/1/17
f 200/1/22 199/1/22 207/1/22 208/1/22
f 198/1/15 197/1/15 205/1/15 206/1/15
f 197/1/20 204/1/20 212/1/20 205/1/20
f 203/1/21 202/1/21 210/1/21 211/1/21
f 201/1/18 200/1/18 208/1/18 209/1/18
f 239/1/47 237/1/47 242/1/47 244/1/47
f 240/1/48 241/1/48 246/1/48 245/1/48
f 237/1/49 238/1/49 243/1/49 242/1/49
f 238/1/50 240/1/50 245/1/50 243/1/50
f 199/1/1 191/1/1 239/1/1 244/1/1
f 197/1/15 198/1/15 242/1/15 243/1/15
f 196/1/22 195/1/22 241/1/22 240/1/22
f 204/1/20 197/1/20 243/1/20 245/1/20
f 190/1/17 189/1/17 238/1/17 237/1/17
f 198/1/19 199/1/19 244/1/19 242/1/19
usemtl Red_Light
f 212/1/23 211/1/23 219/1/23 220/1/23
f 210/1/24 209/1/24 217/1/24 218/1/24
f 208/1/25 207/1/25 215/1/25 216/1/25
f 206/1/26 205/1/26 213/1/26 214/1/26
f 205/1/27 212/1/27 220/1/27 213/1/27
f 211/1/28 210/1/28 218/1/28 219/1/28
f 209/1/29 208/1/29 216/1/29 217/1/29
f 207/1/30 206/1/30 214/1/30 215/1/30
f 218/1/31 217/1/31 225/1/31 226/1/31
f 216/1/32 215/1/32 223/1/32 224/1/32
f 214/1/33 213/1/33 221/1/33 222/1/33
f 213/1/34 220/1/34 228/1/34 221/1/34
f 219/1/35 218/1/35 226/1/35 227/1/35
f 217/1/36 216/1/36 224/1/36 225/1/36
f 215/1/37 214/1/37 222/1/37 223/1/37
f 220/1/38 219/1/38 227/1/38 228/1/38
f 228/1/39 227/1/39 235/1/39 236/1/39
f 226/1/40 225/1/40 233/1/40 234/1/40
f 224/1/41 223/1/41 231/1/41 232/1/41
f 222/1/42 221/1/42 229/1/42 230/1/42
f 221/1/43 228/1/43 236/1/43 229/1/43
f 227/1/44 226/1/44 234/1/44 235/1/44
f 225/1/45 224/1/45 232/1/45 233/1/45
f 223/1/46 222/1/46 230/1/46 231/1/46
f 230/1/14 229/1/14 236/1/14 235/1/14 234/1/14 233/1/14 232/1/14 231/1/14
usemtl Yellow_Light
f 146/1/23 145/1/23 153/1/23 154/1/23
f 144/1/24 143/1/24 151/1/24 152/1/24
f 142/1/25 141/1/25 149/1/25 150/1/25
f 140/1/26 139/1/26 147/1/26 148/1/26
f 139/1/27 146/1/27 154/1/27 147/1/27
f 145/1/28 144/1/28 152/1/28 153/1/28
f 143/1/29 142/1/29 150/1/29 151/1/29
f 141/1/30 140/1/30 148/1/30 149/1/30
f 152/1/31 151/1/31 159/1/31 160/1/31
f 150/1/32 149/1/32 157/1/32 158/1/32
f 148/1/33 147/1/33 155/1/33 156/1/33
f 147/1/34 154/1/34 162/1/34 155/1/34
f 153/1/35 152/1/35 160/1/35 161/1/35
f 151/1/36 150/1/36 158/1/36 159/1/36
f 149/1/37 148/1/37 156/1/37 157/1/37
f 154/1/38 153/1/38 161/1/38 162/1/38
f 162/1/39 161/1/39 169/1/39 170/1/39
f 160/1/40 159/1/40 167/1/40 168/1/40
f 158/1/41 157/1/41 165/1/41 166/1/41
f 156/1/42 155/1/42 163/1/42 164/1/42
f 155/1/43 162/1/43 170/1/43 163/1/43
f 161/1/44 160/1/44 168/1/44 169/1/44
f 159/1/45 158/1/45 166/1/45 167/1/45
f 157/1/46 156/1/46 164/1/46 165/1/46
f 164/1/14 163/1/14 170/1/14 169/1/14 168/1/14 167/1/14 166/1/14 165/1/14
usemtl Green_Light
f 80/1/23 79/1/23 87/1/23 88/1/23
f 78/1/24 77/1/24 85/1/24 86/1/24
f 76/1/25 75/1/25 83/1/25 84/1/25
f 74/1/26 73/1/26 81/1/26 82/1/26
f 73/1/27 80/1/27 88/1/27 81/1/27
f 79/1/28 78/1/28 86/1/28 87/1/28
f 77/1/29 76/1/29 84/1/29 85/1/29
f 75/1/30 74/1/30 82/1/30 83/1/30
f 86/1/31 85/1/31 93/1/31 94/1/31
f 84/1/32 83/1/32 91/1/32 92/1/32
f 82/1/33 81/1/33 89/1/33 90/1/33
f 81/1/34 88/1/34 96/1/34 89/1/34
f 87/1/35 86/1/35 94/1/35 95/1/35
f 85/1/36 84/1/36 92/1/36 93/1/36
f 83/1/37 82/1/37 90/1/37 91/1/37
f 88/1/38 87/1/38 95/1/38 96/1/38
f 96/1/39 95/1/39 103/1/39 104/1/39
f 94/1/40 93/1/40 101/1/40 102/1/40
f 92/1/41 91/1/41 99/1/41 100/1/41
f 90/1/42 89/1/42 97/1/42 98/1/42
f 89/1/43 96/1/43 104/1/43 97/1/43
f 95/1/44 94/1/44 102/1/44 103/1/44
f 93/1/45 92/1/45 100/1/45 101/1/45
f 91/1/46 90/1/46 98/1/46 99/1/46
f 98/1/14 97/1/14 104/1/14 103/1/14 102/1/14 101/1/14 100/1/14 99/1/14
