# Blender 3.6.2
# www.blender.org
mtllib trafficcone.mtl
o Circle
v 0.000000 0.000000 -1.171581
v -0.828433 0.000000 -0.828433
v -1.171581 0.000000 0.000000
v -0.828433 0.000000 0.828433
v 0.000000 0.000000 1.171581
v 0.828433 0.000000 0.828433
v 1.171581 0.000000 0.000000
v 0.828433 0.000000 -0.828433
v 0.000000 0.130533 -1.171581
v -0.828433 0.130533 -0.828433
v -1.171581 0.130533 0.000000
v -0.828433 0.130533 0.828433
v 0.000000 0.130533 1.171581
v 0.828433 0.130533 0.828433
v 1.171581 0.130533 0.000000
v 0.828433 0.130533 -0.828433
v -0.000000 0.130533 -0.705092
v -0.498575 0.130533 -0.498575
v -0.705092 0.130533 0.000000
v -0.498575 0.130533 0.498575
v -0.000000 0.130533 0.705092
v 0.498575 0.130533 0.498575
v 0.705092 0.130533 0.000000
v 0.498575 0.130533 -0.498575
v -0.000000 2.485308 -0.243053
v -0.171865 2.485308 -0.171865
v -0.243053 2.485308 -0.000000
v -0.171865 2.485308 0.171865
v -0.000000 2.485308 0.243053
v 0.171865 2.485308 0.171865
v 0.243053 2.485308 -0.000000
v 0.171865 2.485308 -0.171865
v -0.000000 2.485308 -0.137512
v -0.097235 2.485308 -0.097235
v -0.137512 2.485308 -0.000000
v -0.097235 2.485308 0.097235
v -0.000000 2.485308 0.137512
v 0.097235 2.485308 0.097235
v 0.137512 2.485308 -0.000000
v 0.097235 2.485308 -0.097235
v -0.000000 0.004826 -0.598858
v -0.423456 0.004826 -0.423456
v -0.598858 0.004826 -0.000000
v -0.423456 0.004826 0.423456
v -0.000000 0.004826 0.598858
v 0.423456 0.004826 0.423456
v 0.598858 0.004826 -0.000000
v 0.423456 0.004826 -0.423456
v 0.366886 1.854195 -0.000000
v 0.259428 1.854195 -0.259428
v -0.000000 1.854195 0.366886
v 0.259428 1.854195 0.259428
v -0.366886 1.854195 -0.000000
v -0.259428 1.854195 0.259428
v -0.000000 1.854195 -0.366886
v -0.259428 1.854195 -0.259428
v 0.294734 1.599723 -0.294734
v 0.294734 1.599723 0.294734
v -0.294734 1.599723 0.294734
v -0.294734 1.599723 -0.294734
v 0.416817 1.599723 -0.000000
v -0.000000 1.599723 0.416817
v -0.416817 1.599723 -0.000000
v -0.000000 1.599723 -0.416817
v 0.393102 0.890738 -0.393102
v 0.393102 0.890738 0.393102
v -0.393102 0.890738 0.393102
v -0.393102 0.890738 -0.393102
v 0.555930 0.890738 -0.000000
v -0.000000 0.890738 0.555930
v -0.555930 0.890738 -0.000000
v -0.000000 0.890738 -0.555930
v 0.442604 0.533944 -0.442604
v 0.442604 0.533944 0.442604
v -0.442604 0.533944 0.442604
v -0.442604 0.533944 -0.442604
v 0.625937 0.533944 -0.000000
v -0.000000 0.533944 0.625937
v -0.625937 0.533944 -0.000000
v -0.000000 0.533944 -0.625937
vn 0.9239 -0.0000 -0.3827
vn 0.3827 -0.0000 0.9239
vn -0.9239 -0.0000 0.3827
vn -0.3827 -0.0000 -0.9239
vn 0.3827 -0.0000 -0.9239
vn 0.9239 -0.0000 0.3827
vn -0.3827 -0.0000 0.9239
vn -0.9239 -0.0000 -0.3827
vn -0.0000 1.0000 -0.0000
vn 0.9091 0.1784 -0.3765
vn 0.3765 0.1784 0.9091
vn -0.9091 0.1784 0.3765
vn -0.3765 0.1784 -0.9091
vn 0.3765 0.1784 -0.9091
vn 0.9091 0.1784 0.3765
vn -0.3765 0.1784 0.9091
vn -0.9091 0.1784 -0.3765
vn 0.9105 -0.1694 0.3772
vn -0.9105 -0.1694 0.3772
vn -0.3772 -0.1694 -0.9105
vn 0.9105 -0.1694 -0.3772
vn 0.3772 -0.1694 0.9105
vn -0.3772 -0.1694 0.9105
vn -0.9105 -0.1694 -0.3772
vn 0.3772 -0.1694 -0.9105
vn -0.0035 -1.0000 0.0084
vn -0.0084 -1.0000 0.0035
vn -0.0084 -1.0000 -0.0035
vn -0.0035 -1.0000 -0.0084
vn 0.0035 -1.0000 -0.0084
vn 0.0084 -1.0000 -0.0035
vn 0.0084 -1.0000 0.0035
vn 0.0035 -1.0000 0.0084
vt 0.000000 0.000000
s 0
usemtl TrafficCone.001
f 8/1/1 16/1/1 15/1/1 7/1/1
f 6/1/2 14/1/2 13/1/2 5/1/2
f 4/1/3 12/1/3 11/1/3 3/1/3
f 2/1/4 10/1/4 9/1/4 1/1/4
f 1/1/5 9/1/5 16/1/5 8/1/5
f 7/1/6 15/1/6 14/1/6 6/1/6
f 5/1/7 13/1/7 12/1/7 4/1/7
f 3/1/8 11/1/8 10/1/8 2/1/8
f 10/1/9 18/1/9 17/1/9 9/1/9
f 9/1/9 17/1/9 24/1/9 16/1/9
f 15/1/9 23/1/9 22/1/9 14/1/9
f 13/1/9 21/1/9 20/1/9 12/1/9
f 11/1/9 19/1/9 18/1/9 10/1/9
f 16/1/9 24/1/9 23/1/9 15/1/9
f 14/1/9 22/1/9 21/1/9 13/1/9
f 12/1/9 20/1/9 19/1/9 11/1/9
f 50/1/10 32/1/10 31/1/10 49/1/10
f 52/1/11 30/1/11 29/1/11 51/1/11
f 54/1/12 28/1/12 27/1/12 53/1/12
f 56/1/13 26/1/13 25/1/13 55/1/13
f 55/1/14 25/1/14 32/1/14 50/1/14
f 49/1/15 31/1/15 30/1/15 52/1/15
f 51/1/16 29/1/16 28/1/16 54/1/16
f 53/1/17 27/1/17 26/1/17 56/1/17
f 32/1/9 40/1/9 39/1/9 31/1/9
f 30/1/9 38/1/9 37/1/9 29/1/9
f 28/1/9 36/1/9 35/1/9 27/1/9
f 26/1/9 34/1/9 33/1/9 25/1/9
f 25/1/9 33/1/9 40/1/9 32/1/9
f 31/1/9 39/1/9 38/1/9 30/1/9
f 29/1/9 37/1/9 36/1/9 28/1/9
f 27/1/9 35/1/9 34/1/9 26/1/9
f 35/1/18 43/1/18 42/1/18 34/1/18
f 40/1/19 48/1/19 47/1/19 39/1/19
f 38/1/20 46/1/20 45/1/20 37/1/20
f 36/1/21 44/1/21 43/1/21 35/1/21
f 34/1/22 42/1/22 41/1/22 33/1/22
f 33/1/23 41/1/23 48/1/23 40/1/23
f 39/1/24 47/1/24 46/1/24 38/1/24
f 37/1/25 45/1/25 44/1/25 36/1/25
f 41/1/26 1/1/26 8/1/26 48/1/26
f 48/1/27 8/1/27 7/1/27 47/1/27
f 47/1/28 7/1/28 6/1/28 46/1/28
f 46/1/29 6/1/29 5/1/29 45/1/29
f 45/1/30 5/1/30 4/1/30 44/1/30
f 44/1/31 4/1/31 3/1/31 43/1/31
f 43/1/32 3/1/32 2/1/32 42/1/32
f 42/1/33 2/1/33 1/1/33 41/1/33
f 65/1/10 57/1/10 61/1/10 69/1/10
f 66/1/11 58/1/11 62/1/11 70/1/11
f 67/1/12 59/1/12 63/1/12 71/1/12
f 68/1/13 60/1/13 64/1/13 72/1/13
f 72/1/14 64/1/14 57/1/14 65/1/14
f 69/1/15 61/1/15 58/1/15 66/1/15
f 70/1/16 62/1/16 59/1/16 67/1/16
f 71/1/17 63/1/17 60/1/17 68/1/17
f 24/1/10 73/1/10 77/1/10 23/1/10
f 22/1/11 74/1/11 78/1/11 21/1/11
f 20/1/12 75/1/12 79/1/12 19/1/12
f 18/1/13 76/1/13 80/1/13 17/1/13
f 17/1/14 80/1/14 73/1/14 24/1/14
f 23/1/15 77/1/15 74/1/15 22/1/15
f 21/1/16 78/1/16 75/1/16 20/1/16
f 19/1/17 79/1/17 76/1/17 18/1/17
usemtl TrafficConeStripes.001
f 63/1/17 53/1/17 56/1/17 60/1/17
f 62/1/16 51/1/16 54/1/16 59/1/16
f 61/1/15 49/1/15 52/1/15 58/1/15
f 64/1/14 55/1/14 50/1/14 57/1/14
f 60/1/13 56/1/13 55/1/13 64/1/13
f 59/1/12 54/1/12 53/1/12 63/1/12
f 58/1/11 52/1/11 51/1/11 62/1/11
f 57/1/10 50/1/10 49/1/10 61/1/10
f 79/1/17 71/1/17 68/1/17 76/1/17
f 78/1/16 70/1/16 67/1/16 75/1/16
f 77/1/15 69/1/15 66/1/15 74/1/15
f 80/1/14 72/1/14 65/1/14 73/1/14
f 76/1/13 68/1/13 72/1/13 80/1/13
f 75/1/12 67/1/12 71/1/12 79/1/12
f 74/1/11 66/1/11 70/1/11 78/1/11
f 73/1/10 65/1/10 69/1/10 77/1/10
